<svg width="277" height="277" viewBox="0 0 277 277" fill="none" xmlns="http://www.w3.org/2000/svg">
<path d="M72.292 255.299C71.8842 255.345 71.4969 254.979 71.1327 254.196C70.6787 253.837 70.1863 253.137 69.6528 252.098C69.3168 251.588 68.9115 251.049 68.4345 250.488C67.9574 249.926 66.9777 248.01 65.5003 244.745C62.6201 238.892 59.9809 233.906 57.5802 229.787C56.3619 227.589 55.4642 225.77 54.8846 224.326C54.5486 223.816 54.3357 223.462 54.2459 223.267C54.1536 223.072 54.0382 222.982 53.9048 222.998C50.7552 217.178 48.4828 212.421 47.0952 208.735C46.3617 207.17 45.782 205.724 45.3563 204.4L43.82 200.043C41.5834 196.178 40.3882 193.569 40.2318 192.212C40.1702 191.671 40.1856 191.222 40.2831 190.866C40.378 190.512 40.4703 190.122 40.5601 189.699L40.4344 186.826L37.6721 186.116C35.1509 185.723 33.6094 185.454 33.0426 185.313C32.4783 185.172 32.0603 183.951 31.7935 181.645L31.0933 177.395C32.563 175.851 33.3965 174.756 33.5992 174.115C33.7992 173.474 34.2558 172.079 34.9688 169.934L35.7023 167.375C36.5513 165.215 37.2925 162.725 37.9286 159.901C38.8904 156.354 39.2315 153.358 38.9494 150.916C38.9032 150.508 38.6929 149.606 38.3261 148.205C37.9568 146.805 36.9873 145.853 35.4176 145.348C34.5712 145.174 34.125 144.879 34.0788 144.473C34.0172 143.932 34.4866 143.26 35.4946 142.452C36.5 141.65 36.9488 140.772 36.8385 139.821C36.7282 138.869 36.1409 137.979 35.0842 137.138C34.0249 136.302 33.4709 135.676 33.4248 135.268L33.4017 135.066C33.3555 134.658 33.6299 134.078 34.2301 133.319C34.8277 132.562 35.1714 131.973 35.2612 131.549C35.3484 131.126 35.0021 127.528 34.2147 120.741C33.4273 113.96 32.8964 110.274 32.6245 109.689C32.3501 109.102 32.1577 108.335 32.0475 107.386C31.9372 106.44 31.8628 105.519 31.8294 104.626C31.7935 103.739 31.7987 103.188 31.8448 102.975C31.8884 102.764 32.0269 102.475 32.2603 102.103C32.4912 101.736 32.7092 101.261 32.9221 100.687L32.4219 99.9201L32.0295 98.317C31.219 96.0754 29.2185 94.2441 26.0304 92.8258C24.5941 92.3051 23.8298 91.6357 23.7349 90.8227C23.6733 90.284 24.1094 89.3351 25.0558 87.9885C25.5328 87.3858 25.8303 86.9703 25.9432 86.7523C26.0535 86.5317 26.1458 86.1444 26.2202 85.5853L26.1971 85.3827C26.0612 85.3981 25.9201 85.3827 25.779 85.3288C25.6354 85.2775 25.3097 85.1467 24.8044 84.9261C24.2966 84.7107 24.0145 84.3311 23.9503 83.7874C23.8708 83.1103 24.294 82.0305 25.225 80.548L25.3815 80.1171C26.292 78.5013 26.9332 77.224 27.3077 76.2853C27.6796 75.3491 27.7873 74.2027 27.6308 72.8459C27.3795 70.6786 27.082 68.7191 26.7434 66.9699C25.856 61.712 24.8942 57.5647 23.8554 54.5203C22.8141 51.481 21.2085 48.3006 19.0361 44.9766L16.9843 41.5038C16.6073 38.2491 16.892 36.5666 17.8409 36.4563C18.1102 36.4255 18.4206 36.4229 18.7668 36.4511C19.1131 36.4819 19.4696 36.8846 19.8364 37.6669C20.4391 38.1491 20.911 38.6441 21.247 39.1519C22.5935 40.0983 24.2684 42.1014 26.2741 45.1664C28.2797 48.2339 30.5983 51.0552 33.235 53.638C34.8995 54.9614 36.3281 57.8161 37.5285 62.2121C37.7875 63.2842 37.9876 63.8075 38.1235 63.7921L39.2725 63.0406C39.4059 63.0252 39.488 63.1175 39.5111 63.3227C39.5342 63.5279 39.6803 63.6125 39.9522 63.5792C40.36 63.533 41.2474 62.9123 42.6248 61.7223C43.9969 60.5322 45.7102 58.7189 47.7672 56.2797C49.0855 54.6152 50.2859 53.72 51.3733 53.5918C53.1354 53.3866 54.4998 55.0845 55.4693 58.6855L56.3619 61.0554C56.7902 62.3814 57.6725 64.0665 59.0088 66.1107L61.907 71.5481C62.3354 72.8741 63.1099 74.2283 64.2333 75.6082L66.3724 78.0396C67.8754 80.3403 69.2321 81.9715 70.4453 82.9282L71.5328 83.4206C72.4407 84.1413 73.2717 84.8005 74.0309 85.3981C74.7875 86.0008 75.6057 86.524 76.4803 86.9703L77.437 88.0963C78.8938 89.9891 80.2968 91.133 81.6484 91.5254C83.0001 91.9204 83.7157 92.4564 83.7926 93.1336L83.8644 93.744C83.7746 94.1672 83.0719 95.2111 81.7536 96.8756C78.6194 100.677 76.7188 103.234 76.0469 104.55L75.1569 107.54C74.6978 109.52 74.1335 111.164 73.4615 112.48C72.7895 113.796 72.3638 114.875 72.1868 115.719L71.6662 120.11C71.6123 122.044 71.6456 123.483 71.7559 124.429C72.038 126.871 71.4969 128.72 70.1324 129.98C66.3929 133.301 64.6206 138.179 64.8207 144.617C64.872 146.261 64.8745 147.464 64.8258 148.226C64.7771 148.988 64.3462 149.416 63.5306 149.511C61.766 149.716 59.5397 147.705 56.8518 143.481C55.8336 141.814 54.9718 140.606 54.2664 139.862C53.5611 139.118 52.3916 138.223 50.7578 137.177C49.9986 136.576 49.3651 136.138 48.8521 135.851C48.3366 135.568 48.0109 135.432 47.8775 135.448C47.6031 135.479 47.4081 135.574 47.2902 135.722C47.1696 135.876 47.1645 136.425 47.2748 137.374C47.7005 141.037 48.0416 143.404 48.3033 144.471C48.6418 146.22 48.9624 147.487 49.2599 148.277C49.5574 149.067 49.7908 149.901 49.9627 150.773C50.132 151.647 50.3397 152.553 50.5859 153.484C50.8296 154.42 51.399 155.761 52.2915 157.513C53.1815 159.265 53.6663 160.48 53.7458 161.158L53.7073 162.607C53.5432 163.589 53.5047 164.417 53.5842 165.095C53.6791 165.908 54.0664 166.585 54.7486 167.126C55.4309 167.665 57.2262 168.042 60.1373 168.252L60.5451 168.206C62.4892 168.393 63.9153 168.537 64.8232 168.637C65.726 168.739 66.298 168.914 66.534 169.16C66.7699 169.409 66.911 169.734 66.9572 170.142C67.1136 171.499 65.9312 173.148 63.4074 175.09C59.7859 178.26 57.1698 181.173 55.5565 183.836C56.1567 186.652 57.2622 190.853 58.8754 196.442L63.0407 211.01L64.3821 217.248C64.5873 219.007 65.1643 221.623 66.1159 225.088C66.5288 226.278 66.8879 227.609 67.1982 229.087L68.9551 237.13C69.3835 238.453 69.7502 239.854 70.0606 241.331C70.3684 242.808 70.8608 244.673 71.5354 246.933C72.4536 250.126 73.0101 252.534 73.1999 254.163C73.005 254.873 72.7075 255.25 72.2997 255.299H72.292ZM53.2764 125.127C53.4098 125.112 53.6124 124.47 53.8792 123.201C54.3254 122.324 54.505 121.48 54.4101 120.664C55.1795 117.828 56.9698 115.491 59.7834 113.65C60.8042 112.983 61.5403 112.208 61.9891 111.331C62.4354 110.454 62.7816 108.697 63.0279 106.055L62.8637 104.632C62.8329 104.36 61.9712 104.049 60.2809 103.693C56.7954 103.272 54.2049 103.159 52.5095 103.357C50.8116 103.554 49.9191 103.244 49.8242 102.431C49.7139 101.485 50.3372 100.928 51.6939 100.769L52.3044 100.697C52.9815 100.618 53.5175 100.489 53.9074 100.305C56.2542 99.207 57.6161 98.2247 57.9983 97.3552C58.3778 96.4858 58.4907 95.3752 58.3317 94.0184C58.0803 91.8512 58.006 90.6226 58.1111 90.3328C58.2137 90.0455 58.2599 89.8352 58.2445 89.6993C58.2291 89.5633 58.1727 89.3992 58.0829 89.2043C57.988 89.0093 57.3083 88.1604 56.0336 86.6574C55.2744 86.0598 54.7332 85.2288 54.4049 84.167C54.0767 83.1077 53.7304 82.2177 53.3739 81.5021C53.0148 80.7891 52.3044 80.012 51.2477 79.1707C49.8704 77.9575 48.8393 77.3882 48.1622 77.4677C47.2106 77.578 46.0257 78.6116 44.6022 80.5608C44.2585 81.1533 43.9662 81.5996 43.7276 81.8997C43.4865 82.2049 43.3224 82.5665 43.2352 82.9871C42.7427 84.6928 42.5401 85.888 42.6196 86.5625C42.6837 87.1062 42.8197 87.709 43.0351 88.3707C43.248 89.035 43.3968 89.7044 43.4737 90.3815C43.5045 90.656 43.5173 91.0663 43.5147 91.6152C43.507 92.1666 42.9684 93.1207 41.8887 94.4827C41.6476 94.7879 41.5757 95.3444 41.6706 96.1575L44.7125 108.176C45.2511 110.454 45.6153 112.403 45.8026 114.029L45.9847 119.161L47.503 119.81C49.5267 120.677 51.1322 122.07 52.3172 123.993C52.6814 124.776 52.9994 125.153 53.2739 125.119L53.2764 125.127Z" fill="white"/>
<path d="M91.918 215.391C91.6461 215.252 91.5076 215.049 91.5076 214.775C91.5076 214.09 91.6102 213.546 91.8154 213.136C92.0205 212.726 92.1924 212.215 92.3283 211.6C92.4668 210.984 92.6361 210.402 92.8413 209.858C93.0465 209.312 93.285 208.491 93.5569 207.401C93.8287 206.306 94.1006 205.352 94.375 204.534C99.0148 189.789 101.339 177.908 101.339 168.896C101.339 164.936 100.961 161.624 100.213 158.962C99.4611 156.3 98.8814 154.697 98.471 154.148L97.4477 153.125C96.7629 152.442 96.4243 151.829 96.4243 151.28C96.4243 150.732 96.6295 150.224 97.0399 149.744C97.4503 149.267 97.6554 148.823 97.6554 148.413C97.6554 148.141 97.5528 147.9 97.3477 147.697C97.1425 147.492 97.0399 147.184 97.0399 146.777C97.0399 145.276 97.8581 143.571 99.497 141.657L100.726 140.018L100.11 135.717C98.8814 129.572 97.8581 123.909 97.0373 118.718C96.7629 116.807 96.4551 115.44 96.1166 114.622C95.7754 113.803 95.6036 112.983 95.6036 112.164C95.6036 111.346 95.737 110.392 96.014 109.297C96.2858 108.753 96.491 108.138 96.6295 107.455C96.7629 106.773 96.9014 106.194 97.0399 105.714C97.1733 105.237 97.3118 104.688 97.4503 104.075C97.5836 103.46 97.7221 102.949 97.8606 102.539C97.994 102.128 98.0658 101.721 98.0658 101.31L97.6554 97.8272C97.6554 96.3268 97.3477 95.2008 96.7347 94.4493C96.1191 93.7004 95.3676 93.3208 94.4828 93.3208C93.5979 93.3208 93.1516 92.9104 93.1516 92.0922C93.1516 91.41 93.4594 90.7611 94.0724 90.1455C94.6879 89.5326 95.0624 89.0196 95.1984 88.6092C95.1984 88.3374 95.0598 88.0655 94.788 87.7911C94.5135 87.5192 94.3776 87.1088 94.3776 86.5625C94.3776 86.0162 94.7162 85.3006 95.401 84.4106C96.0832 83.5232 96.5603 82.4639 96.8347 81.2354C97.1066 80.0068 97.2451 78.3012 97.2451 76.116L97.4503 70.5863V69.1525C97.4503 66.6954 97.1425 63.3868 96.5295 59.219C95.9139 55.0563 95.0598 51.404 93.9698 48.2621C93.8313 47.9903 93.5594 46.8284 93.1516 44.7791C92.7438 42.7298 91.9923 40.8216 90.8997 39.0442C90.356 37.8156 90.0815 36.9282 90.0815 36.3819C90.0815 35.8356 90.2867 35.5637 90.6971 35.5637C91.2434 35.5637 92.336 36.3152 93.9749 37.8182C97.3861 41.3705 99.8791 44.1661 101.451 46.2154C103.018 48.2647 104.421 50.5858 105.65 53.1789L106.879 55.4308C109.472 60.7553 110.975 64.4435 111.385 66.4903L112 68.3344H112.613C114.252 68.3344 115.309 68.5396 115.789 68.9474C116.266 69.3577 116.574 70.1451 116.709 71.3019C116.843 72.4637 117.528 73.0434 118.759 73.0434C119.577 73.0434 120.5 72.8048 121.524 72.3278C122.547 71.8507 123.332 71.6122 123.878 71.6122C125.107 71.6122 126.299 72.6356 127.464 74.6848C128.623 76.7341 129.477 78.0319 130.023 78.5782L130.229 78.9886H130.434L130.844 79.8068C131.662 80.902 132.345 81.9253 132.893 82.8794C133.848 84.5184 134.943 86.1239 136.171 87.6936C137.4 89.2658 138.9 91.3484 140.678 93.9415C140.678 94.0774 141.016 94.4878 141.701 95.17C144.84 98.7223 146.413 100.905 146.413 101.723C146.413 102.133 146.207 102.68 145.797 103.362C145.112 105.275 144.774 107.868 144.774 111.146C144.774 114.424 145.251 117.427 146.207 119.749C146.89 121.388 147.231 122.688 147.231 123.642C147.231 125.145 146.615 126.171 145.387 126.715C143.201 127.671 141.562 130.949 140.47 136.546L139.854 140.231C139.308 142.688 139 145.592 138.934 148.936C138.864 152.283 138.695 154.774 138.421 156.413C138.146 158.052 137.702 159.485 137.089 160.714C136.474 161.942 136.169 162.627 136.169 162.763C136.169 162.899 136.235 163.002 136.374 163.071C136.507 163.143 136.579 163.245 136.579 163.379C136.579 164.335 134.666 166.795 130.844 170.753C128.249 173.62 126.474 175.805 125.52 177.306C123.196 180.448 120.195 182.428 116.507 183.246C115.14 183.656 113.809 184.851 112.513 186.829C111.213 188.809 110.19 191.233 109.441 194.1C108.689 196.968 105.719 201.474 100.531 207.619C96.2961 212.805 93.4312 215.403 91.9282 215.403L91.918 215.391ZM116.702 163.366C116.974 163.366 117.589 162.822 118.546 161.727C119.91 160.088 120.867 158.247 121.413 156.197C123.052 149.644 124.212 146.366 124.896 146.366C125.44 146.366 125.85 146.707 126.125 147.392C126.125 150.26 126.258 151.693 126.535 151.693C126.812 151.693 127.079 151.283 127.353 150.465C128.446 148.826 129.605 147.326 130.836 145.958L130.631 142.273V137.561C130.631 135.789 130.662 134.525 130.734 133.77C130.801 133.022 131.38 131.962 132.475 130.595L133.499 128.751L133.088 127.317C132.404 125.678 132.065 123.496 132.065 120.764C132.065 116.396 132.404 113.052 133.088 110.728C133.499 109.636 133.704 108.679 133.704 107.861C133.704 106.222 132.747 105.404 130.836 105.404C130.29 105.404 129.844 105.373 129.505 105.301C129.162 105.234 128.718 104.927 128.174 104.38C128.036 104.38 127.969 104.314 127.969 104.175C127.695 104.175 127.559 104.347 127.559 104.685C127.559 105.024 127.489 105.337 127.353 105.606C127.079 109.023 126.33 112.093 125.102 114.824C122.234 120.559 120.254 123.427 119.161 123.427C118.477 123.427 118.138 122.883 118.138 121.788C118.138 121.105 118.271 120.015 118.548 118.51C118.959 114.552 119.503 111.341 120.187 108.884L120.393 106.017V98.2324C120.254 97.1424 119.982 96.5935 119.574 96.5935L117.935 96.7987C116.84 96.7987 115.886 95.9805 115.068 94.3416C114.658 93.6593 114.25 93.3157 113.839 93.3157C112.883 93.0438 112.201 91.9845 111.793 90.1404C111.382 88.2989 111.041 87.3756 110.769 87.3756L110.564 87.7859C110.426 88.1963 110.359 89.0145 110.359 90.243L110.564 94.5442C110.698 95.229 110.836 97.0013 110.975 99.8688V110.726C110.975 115.778 111.041 119.159 111.18 120.864C111.313 122.573 111.518 123.937 111.795 124.96C112.067 125.984 112.203 127.043 112.203 128.136C112.203 129.91 111.518 132.165 110.156 134.894C110.29 135.851 110.464 136.738 110.669 137.556C110.874 138.374 111.044 139.264 111.182 140.218C111.316 141.175 111.454 142.063 111.593 142.881C112.003 144.384 112.206 146.092 112.206 148C112.206 149.639 112.103 151.381 111.898 153.222C111.693 155.066 111.59 156.264 111.59 156.805C111.59 157.082 111.657 157.215 111.795 157.215C111.934 157.215 112.067 156.805 112.203 155.987L113.637 151.891C114.591 149.434 115.481 146.02 116.299 141.65C116.299 140.421 116.468 139.636 116.812 139.293C117.151 138.954 117.458 138.782 117.733 138.782C118.277 138.782 118.551 139.467 118.551 140.831L118.346 143.083C118.346 145.133 118.243 147.692 118.038 150.765C117.833 153.838 117.525 156.808 117.117 159.675C116.843 161.314 116.707 162.543 116.707 163.361L116.702 163.366Z" fill="white"/>
<path d="M181.689 254.381C181.291 254.281 181.161 253.965 181.291 253.437C181.489 252.642 182.025 251.472 182.905 249.934C183.782 248.389 184.964 246.333 186.454 243.747L208.555 206.586C208.984 205.426 209.399 204.472 209.797 203.728C210.194 202.982 210.7 201.807 211.31 200.202C211.923 198.594 212.556 197.029 213.221 195.506L214.462 192.228C217.273 185.472 219.076 180.501 219.871 177.321C220.433 175.069 220.748 172.969 220.813 171.012L221.208 165.2C221.369 163.412 221.323 162.204 221.056 161.573C220.79 160.947 220.725 160.365 220.859 159.834C220.959 159.437 221.287 158.96 221.851 158.395C222.977 157.272 224.101 155.861 225.229 154.171C226.353 152.481 227.017 151.239 227.214 150.444C227.314 150.047 226.748 148.359 225.524 145.379C225.224 144.32 225.193 143.327 225.424 142.399C225.524 142.001 225.688 141.619 225.922 141.257C226.15 140.893 226.301 140.58 226.368 140.313C226.666 139.121 225.688 138.244 223.436 137.682C222.244 137.384 221.78 136.707 222.044 135.645C222.472 133.924 224.755 131.257 228.897 127.646C232.075 125.06 235.832 121.005 240.169 115.471L242.303 112.836L243.147 109.459C244.206 105.219 244.237 101.992 243.244 99.7713C238.866 87.9834 236.017 81.9228 234.693 81.5919C234.56 81.5586 234.378 81.5868 234.147 81.6663C233.916 81.7509 233.203 81.6406 232.011 81.3431C231.346 81.1764 230.436 81.4457 229.279 82.1382C226.396 84.0926 224.66 86.2624 224.065 88.6477C223.767 89.8403 222.226 92.9053 219.448 97.84C217.527 101.02 215.591 105.111 213.639 110.113C211.684 115.114 210.033 120.331 208.676 125.761L209.122 126.507C210.382 128.228 211.043 129.521 211.11 130.382C210.879 131.311 210.364 132.237 209.571 133.165C208.078 134.625 207.219 135.817 206.988 136.743C206.757 137.672 207.335 138.592 208.73 139.5C210.117 140.411 210.669 141.462 210.371 142.652C210.107 143.714 209.112 144.871 207.391 146.13C206.893 146.428 206.147 147.159 205.157 148.318L202.325 151.201C200.535 152.727 199.114 155.607 198.055 159.847C197.691 161.306 197.334 163.012 196.988 164.964C196.639 166.918 196.221 168.888 195.724 170.876C194.203 176.972 192.91 179.883 191.851 179.619C191.32 179.486 191.022 178.144 190.956 175.595L192.784 148.818C193.146 145.674 192.73 142.824 191.54 140.275C190.876 138.982 190.745 137.543 191.14 135.953C191.471 134.63 192.679 132.609 194.764 129.89L195.457 123.729C195.588 122.637 195.577 121.685 195.431 120.872C195.28 120.064 195.485 116.558 196.049 110.367C195.947 109.638 195.752 108.602 195.452 107.263C195.154 105.922 195.118 104.788 195.352 103.86C195.616 102.8 196.137 101.839 196.916 100.977C197.693 100.115 198.165 99.3558 198.332 98.6915C198.496 98.0298 198.471 97.4271 198.258 96.8782C198.04 96.3319 197.683 95.5035 197.188 94.3955C196.691 93.2875 196.242 92.1205 195.844 90.8945C195.444 89.6685 195.136 88.7836 194.923 88.2373C194.708 87.691 194.516 87.1858 194.351 86.7215C193.854 87.019 193.256 87.4345 192.564 87.9629C191.869 88.4938 191.081 89.1068 190.204 89.8019C189.324 90.4995 188.447 91.1946 187.573 91.8896C186.693 92.5873 185.99 93.149 185.462 93.5773C182.646 95.8292 181.043 97.7528 180.645 99.343L179.406 108.533C179.273 110.19 178.562 113.598 177.272 118.766L175.585 125.522C175.32 126.584 175.338 127.361 175.636 127.859C175.933 128.356 176.464 128.772 177.226 129.1L177.772 129.446C179.493 130.441 180.206 131.531 179.909 132.724C179.742 133.388 179.245 134.248 178.419 135.307L177.129 137.094C177.095 137.228 178.137 137.556 180.258 138.087C183.041 138.782 184.313 139.595 184.082 140.521C183.949 141.052 183.369 141.683 182.343 142.409C180.753 143.701 179.006 145.623 177.103 148.172C175.2 150.724 173.625 153.076 172.386 155.228C171.142 157.382 169.996 160.578 168.937 164.818C168.706 165.746 168.242 167.883 167.547 171.227C166.849 174.572 166.19 179.332 165.564 185.508C164.936 191.684 164.838 196.726 165.269 200.635C165.302 201.628 165.254 202.39 165.12 202.92C164.987 203.451 164.789 203.682 164.525 203.616C163.861 203.449 163.248 202.241 162.686 199.989C162.517 197.837 162.204 195.716 161.74 193.631C161.44 192.569 161.183 191.487 160.97 190.376C160.752 189.265 160.596 188.347 160.496 187.619L159.749 181.312C159.68 178.762 159.447 176.313 159.052 173.961C158.652 171.612 158.38 169.044 158.231 166.262C158.082 163.479 157.831 160.955 157.482 158.688C157.131 156.42 156.992 153.886 157.056 151.086C157.123 148.29 157.146 146.5 157.128 145.72C157.11 144.945 157.203 144.155 157.4 143.36C157.531 141.703 157.846 139.882 158.341 137.897L159.632 132.732C159.796 132.07 160.573 130.929 161.965 129.303C162.956 128.146 163.702 126.571 164.199 124.583C164.694 122.596 164.9 120.641 164.818 118.72C164.733 116.799 164.317 115.36 163.574 114.398C162.827 113.439 162.586 112.431 162.853 111.367C163.25 109.777 164.671 108.02 167.123 106.101C167.782 105.706 168.167 105.306 168.265 104.909C168.395 104.38 168.121 103.924 167.444 103.544C166.764 103.162 166.382 102.857 166.3 102.626C166.215 102.395 166.026 101.749 165.728 100.69L164.487 100.589C163.558 100.359 162.953 100.1 162.673 99.82C162.391 99.5379 162.417 98.7351 162.748 97.4117C163.079 96.0882 163.771 93.8671 164.833 90.7534L166.718 84.8903C168.042 79.5939 169.365 75.1363 170.688 71.525C172.012 67.9163 175.238 61.7556 180.371 53.0429L181.066 51.9503C181.23 51.2886 181.297 50.8834 181.263 50.732C181.227 50.5858 181.23 50.4422 181.263 50.3088C181.297 50.1755 181.353 49.9446 181.438 49.6138C181.52 49.2829 182.422 48.2057 184.143 46.3847C184.405 45.8897 185.482 44.6816 187.373 42.758L194.921 34.5096L197.006 32.0756C197.039 31.9448 197.121 31.8935 197.255 31.9268C198.045 31.0009 198.617 30.4033 198.968 30.1366C199.314 29.875 199.689 29.7903 200.086 29.8878C200.615 30.0186 200.815 30.352 200.684 30.8804C200.517 31.5447 199.897 32.4783 198.822 33.6863C197.745 34.8943 196.18 37.354 194.131 41.0653C192.543 44.0456 191.399 46.0846 190.704 47.1772C189.247 49.6292 187.801 52.4684 186.359 55.6975C184.921 58.9266 184.018 61.2709 183.656 62.7277C182.628 69.0884 182.161 72.5227 182.243 73.0357C182.325 73.5512 182.217 74.4027 181.92 75.5954C181.425 77.5831 181.574 78.6757 182.369 78.8732C183.164 79.0707 184.395 78.6398 186.07 77.5805C187.739 76.5187 188.842 76.0545 189.373 76.1878L190.863 76.9829C190.994 77.0163 191.525 76.3032 192.451 74.8464C193.377 73.3896 194.239 71.9148 195.034 70.4247C196.29 68.2061 197.191 66.9878 197.74 66.7724C198.283 66.5595 198.758 66.5005 199.155 66.598C199.684 66.7288 200.281 67.0212 200.946 67.4675C201.605 67.9163 202.028 68.3369 202.213 68.7319C202.392 69.1295 202.487 69.7501 202.487 70.594C202.487 71.4378 202.669 72.5407 203.036 73.8974C203.895 77.7729 204.99 81.002 206.316 83.5822C207.576 86.9934 208.337 88.7298 208.604 88.7965C208.871 88.8631 210.061 87.1909 212.179 83.7771C214.298 80.3685 216.878 78.1961 219.928 77.2676C221.349 71.5737 222.349 68.4087 222.929 67.7778C223.508 67.152 224.524 67.016 225.983 67.3803C226.645 67.5444 227.614 67.47 228.889 67.1545C230.164 66.8391 231.231 66.3672 232.093 65.7388C233.68 65.0104 234.922 63.7023 235.817 61.8146C236.278 60.5245 237.14 58.4855 238.4 55.7027L242.072 46.9079C243.46 42.4708 244.468 39.5571 245.099 38.1644L247.333 31.755C247.697 30.2982 247.91 28.8747 247.977 27.482C248.038 26.0919 248.192 24.9326 248.423 24.0041C248.851 22.2831 249.464 21.5214 250.259 21.7189C251.054 21.9163 251.567 23.2424 251.801 25.6918C252.593 31.5216 253.093 37.9798 253.296 45.0638C253.296 46.754 253.496 49.3368 253.894 52.8121V54.5023C254.16 56.2567 254.26 58.1136 254.194 60.0654C254.227 62.7482 254.353 65.7721 254.568 69.132C254.784 72.4945 255.017 74.8054 255.266 76.0596C255.512 77.3189 255.507 78.7578 255.243 80.3813C254.912 83.3975 255.989 86.129 258.474 88.5784C259.631 89.5736 260.195 90.4149 260.165 91.1125C259.998 91.7768 259.236 92.5693 257.879 93.4978C255.494 95.1546 254.071 96.9115 253.609 98.7659C253.278 100.092 253.491 101.482 254.255 102.939C254.784 103.634 255.066 104.196 255.102 104.626C254.968 105.157 254.745 105.629 254.432 106.042C254.117 106.458 253.927 106.796 253.86 107.061C253.694 107.725 254.042 108.446 254.904 109.22C255.763 110 256.13 110.654 255.997 111.182C255.663 111.944 253.514 113.519 249.539 115.904L248.943 118.289C248.279 119.813 247.62 121.057 246.958 122.016C246.558 122.48 246.179 123.019 245.817 123.632C245.453 124.247 245.219 124.75 245.122 125.148C244.724 126.176 244.004 127.225 242.962 128.302C241.918 129.38 241.298 130.313 241.1 131.108C240.934 131.773 241.175 132.498 241.821 133.293C242.467 134.089 245.091 135.132 249.698 136.42C253.009 137.246 254.691 137.984 254.74 138.628C254.791 139.275 254.684 140.129 254.419 141.188C253.791 143.707 251.855 146.669 248.61 150.08C246.889 151.904 245.696 154.14 245.037 156.787C244.706 158.113 244.606 159.213 244.74 160.091C244.871 160.968 244.822 161.873 244.591 162.799C243.996 165.182 242.785 167.203 240.967 168.86C236.73 173.433 233.616 178.285 231.634 183.418L223.79 198.768C222.564 200.853 220.513 203.721 217.635 207.365C213.131 214.121 191.41 246.946 186.744 250.988C184.161 253.434 182.474 254.566 181.679 254.368L181.689 254.381Z" fill="white"/>
</svg>
