<svg width="345" height="345" viewBox="0 0 345 345" fill="none" xmlns="http://www.w3.org/2000/svg">
<path d="M25.4534 199.525C25.2905 199.525 25.1531 199.432 25.0445 199.25C24.8816 199.158 24.7187 198.992 24.5558 198.749C24.4472 198.627 24.3098 198.496 24.1469 198.359C23.984 198.222 23.6837 197.771 23.2492 197.011C22.3804 195.641 21.5658 194.465 20.8055 193.491C20.4254 192.973 20.1538 192.545 19.9909 192.21C19.8823 192.088 19.8152 192.002 19.7865 191.957C19.7577 191.913 19.7162 191.89 19.6651 191.89C18.6876 190.517 18.0072 189.405 17.627 188.552C17.4098 188.185 17.2469 187.849 17.1383 187.546L16.7294 186.54C16.0234 185.626 15.6688 185.016 15.6688 184.709C15.6688 184.588 15.6944 184.489 15.7519 184.412C15.8062 184.335 15.8605 184.252 15.9148 184.16L15.9979 183.521L14.9373 183.291C13.9598 183.138 13.3624 183.038 13.1452 182.994C12.928 182.949 12.8194 182.665 12.8194 182.147L12.7363 181.186C13.388 180.882 13.7681 180.659 13.8767 180.521C13.9854 180.384 14.2281 180.087 14.6115 179.63L15.0204 179.081C15.4548 178.624 15.8605 178.09 16.2438 177.48C16.7869 176.72 17.0584 176.062 17.0584 175.512C17.0584 175.42 17.0169 175.215 16.937 174.896C16.854 174.576 16.5154 174.34 15.918 174.187C15.5922 174.126 15.4292 174.049 15.4292 173.957C15.4292 173.835 15.6465 173.698 16.0809 173.545C16.5154 173.391 16.7326 173.209 16.7326 172.995C16.7326 172.781 16.5409 172.567 16.1608 172.356C15.7806 172.142 15.589 171.989 15.589 171.899V171.855C15.589 171.762 15.7231 171.641 15.9979 171.487C16.2694 171.334 16.4323 171.213 16.4866 171.12C16.5409 171.027 16.5697 170.222 16.5697 168.695C16.5697 167.168 16.5281 166.341 16.4483 166.204C16.3652 166.066 16.3269 165.891 16.3269 165.677C16.3269 165.463 16.3397 165.258 16.3684 165.06C16.394 164.862 16.4227 164.741 16.4515 164.693C16.477 164.648 16.5441 164.587 16.6559 164.511C16.7645 164.434 16.8731 164.335 16.9817 164.214L16.8188 164.032L16.7358 163.664C16.5186 163.147 15.8126 162.69 14.6179 162.294C14.0748 162.14 13.8033 161.974 13.8033 161.792C13.8033 161.671 14.0205 161.473 14.4549 161.198C14.6722 161.077 14.8063 160.994 14.8638 160.946C14.9181 160.901 14.9724 160.815 15.0267 160.693V160.649C14.9724 160.649 14.9181 160.642 14.8638 160.626C14.8095 160.61 14.6881 160.572 14.4965 160.511C14.3048 160.451 14.2122 160.358 14.2122 160.237C14.2122 160.083 14.4294 159.856 14.8638 159.55L14.9469 159.457C15.3813 159.122 15.6944 158.857 15.8829 158.655C16.0713 158.457 16.1672 158.205 16.1672 157.901C16.1672 157.413 16.1384 156.972 16.0841 156.576C15.9755 155.387 15.7838 154.442 15.5123 153.739C15.2408 153.039 14.752 152.292 14.0461 151.5L13.3944 150.676C13.3944 149.944 13.5829 149.577 13.9662 149.577C14.0748 149.577 14.1962 149.583 14.3336 149.599C14.4677 149.615 14.5891 149.714 14.7009 149.896C14.9181 150.017 15.0811 150.142 15.1897 150.263C15.6784 150.509 16.2502 150.995 16.9019 151.727C17.5536 152.458 18.3394 153.145 19.2658 153.784C19.8631 154.119 20.2976 154.79 20.5691 155.796C20.6234 156.039 20.6777 156.164 20.732 156.164L21.2208 156.026C21.2751 156.026 21.3038 156.049 21.3038 156.093C21.3038 156.138 21.3581 156.164 21.4667 156.164C21.6297 156.164 22.0098 156.049 22.6072 155.822C23.2045 155.592 23.9648 155.234 24.888 154.748C25.4854 154.413 25.9997 154.247 26.4373 154.247C27.1433 154.247 27.6065 154.659 27.8237 155.483L28.0697 156.033C28.1783 156.336 28.4498 156.735 28.8842 157.221L29.7819 158.502C29.8905 158.809 30.1333 159.128 30.5166 159.463L31.2513 160.058C31.7401 160.607 32.2001 161.003 32.6377 161.246L33.0466 161.383C33.3724 161.565 33.6695 161.735 33.9442 161.885C34.2158 162.038 34.5161 162.176 34.8419 162.297L35.1677 162.572C35.6565 163.028 36.158 163.319 36.6755 163.441C37.1898 163.562 37.4486 163.699 37.4486 163.853V163.99C37.3942 164.083 37.0684 164.297 36.4711 164.629C35.0591 165.392 34.1902 165.91 33.8644 166.185L33.3756 166.823C33.1041 167.252 32.8038 167.6 32.478 167.874C32.1522 168.149 31.9349 168.376 31.8263 168.561L31.4174 169.523C31.3088 169.951 31.2545 170.27 31.2545 170.484C31.2545 171.034 30.9542 171.43 30.3569 171.673C28.7277 172.312 27.8013 173.35 27.5873 174.781C27.533 175.148 27.4787 175.413 27.4244 175.583C27.3701 175.752 27.1784 175.835 26.8526 175.835C26.1466 175.835 25.3576 175.333 24.4887 174.327C24.1629 173.931 23.8786 173.64 23.6326 173.458C23.3866 173.276 22.9681 173.046 22.3708 172.772C22.0992 172.618 21.8692 172.506 21.6776 172.43C21.4859 172.353 21.3645 172.315 21.3102 172.315C21.2016 172.315 21.1186 172.331 21.0642 172.359C21.0099 172.391 20.9812 172.513 20.9812 172.727C20.9812 173.551 21.0067 174.084 21.0642 174.327C21.1186 174.723 21.1856 175.014 21.2687 175.196C21.3517 175.378 21.4029 175.57 21.4316 175.768C21.4572 175.966 21.4987 176.174 21.553 176.384C21.6073 176.598 21.7702 176.912 22.0417 177.32C22.3133 177.733 22.4506 178.014 22.4506 178.167L22.3676 178.486C22.259 178.7 22.2047 178.883 22.2047 179.036C22.2047 179.218 22.3261 179.378 22.572 179.515C22.818 179.652 23.508 179.783 24.6516 179.905H24.8145C25.5748 179.997 26.1306 180.064 26.4852 180.109C26.8366 180.154 27.057 180.208 27.1369 180.269C27.2199 180.33 27.2583 180.406 27.2583 180.496C27.2583 180.802 26.7152 181.135 25.6291 181.502C24.0542 182.112 22.8851 182.69 22.1248 183.24C22.2334 183.879 22.4762 184.84 22.8595 186.121L23.837 189.459L24.083 190.878C24.083 191.274 24.1916 191.868 24.4088 192.66C24.5174 192.935 24.5973 193.238 24.6548 193.574L24.9806 195.404C25.0892 195.708 25.1691 196.027 25.2266 196.366C25.2809 196.701 25.3895 197.126 25.5524 197.647C25.7697 198.378 25.8783 198.928 25.8783 199.292C25.7697 199.445 25.6323 199.522 25.4694 199.522L25.4534 199.525ZM23.9041 170.168C23.9584 170.168 24.067 170.031 24.2299 169.756C24.4472 169.574 24.5558 169.389 24.5558 169.207C24.9902 168.596 25.8048 168.124 26.9995 167.788C27.434 167.667 27.7598 167.513 27.977 167.331C28.1942 167.149 28.4115 166.769 28.6287 166.188V165.868C28.6287 165.808 28.3029 165.715 27.6512 165.594C26.2936 165.412 25.2745 165.319 24.5941 165.319C23.9137 165.319 23.5751 165.226 23.5751 165.044C23.5751 164.83 23.8466 164.725 24.3897 164.725H24.6356C24.9072 164.725 25.1244 164.709 25.2873 164.68C26.2648 164.498 26.8494 164.313 27.0379 164.131C27.2263 163.948 27.3222 163.703 27.3222 163.399C27.3222 162.91 27.3477 162.639 27.4052 162.575C27.4595 162.514 27.4883 162.469 27.4883 162.437C27.4883 162.406 27.4755 162.37 27.4467 162.323C27.418 162.278 27.188 162.07 26.7536 161.706C26.482 161.553 26.3063 161.355 26.2233 161.112C26.1402 160.869 26.0476 160.661 25.939 160.495C25.8304 160.329 25.5844 160.137 25.2042 159.923C24.7155 159.62 24.3354 159.467 24.0638 159.467C23.6837 159.467 23.1662 159.665 22.5145 160.061C22.3516 160.182 22.2142 160.275 22.1056 160.336C21.997 160.396 21.914 160.473 21.8597 160.566C21.5881 160.933 21.4508 161.192 21.4508 161.342C21.4508 161.463 21.4763 161.601 21.5338 161.754C21.5881 161.907 21.6169 162.061 21.6169 162.211C21.6169 162.271 21.6041 162.364 21.5754 162.485C21.5466 162.607 21.2911 162.805 20.8023 163.08C20.6937 163.14 20.6394 163.262 20.6394 163.447L21.2911 166.191C21.3997 166.708 21.454 167.153 21.454 167.517L21.2911 168.66L21.8629 168.842C22.6231 169.085 23.1949 169.437 23.5751 169.893C23.6837 170.075 23.7923 170.168 23.9009 170.168H23.9041Z" fill="white"/>
<path d="M47.6995 194.724H47.6165C47.5078 194.724 47.3705 194.663 47.2076 194.542C47.2076 194.51 47.1533 194.465 47.0447 194.404C46.936 194.344 46.8402 194.251 46.7603 194.13C46.6773 194.008 46.5974 193.887 46.5144 193.766C46.4313 193.644 46.3387 193.552 46.2301 193.491C45.9585 193.245 45.7669 193.018 45.6583 192.804L45.5752 192.711L44.5147 191.156C44.1345 190.728 43.9045 190.447 43.8215 190.309C43.7384 190.172 43.6458 190.057 43.5371 189.967C43.2113 189.661 42.9526 189.341 42.7641 189.006C42.5724 188.67 42.3169 188.319 41.991 187.955C41.8824 187.894 41.7994 187.802 41.7451 187.68C41.202 187.07 40.8602 186.712 40.726 186.607C40.5887 186.498 40.1415 186.064 39.3812 185.303C38.8924 184.815 38.6465 184.342 38.6465 183.885C38.6465 183.428 38.4292 182.956 37.9948 182.467C37.8862 182.345 37.8319 182.224 37.8319 182.103C37.8319 181.86 38.1833 181.48 38.8924 180.959C39.164 180.745 39.4227 180.426 39.6655 179.998C39.9115 179.569 40.0871 178.915 40.1958 178.03C40.1958 177.969 40.167 177.915 40.1127 177.87C40.0584 177.825 39.9753 177.765 39.8667 177.688C39.7581 177.611 39.7038 177.512 39.7038 177.391C39.7038 177.055 40.0009 176.704 40.6015 176.34C41.0902 176.126 41.416 175.685 41.579 175.014C41.579 174.8 41.5246 174.695 41.416 174.695C41.3074 174.695 41.1988 174.656 41.0902 174.58C40.9816 174.503 40.9273 174.42 40.9273 174.327L41.0103 174.097C40.8474 174.005 40.6558 173.96 40.4385 173.96L39.8667 174.005H36.2826C35.7938 174.037 35.3338 174.081 34.8962 174.142C33.9187 174.263 32.2608 174.372 29.9256 174.462C29.111 174.462 28.7021 174.385 28.7021 174.232C28.7021 174.203 28.7437 174.126 28.8235 174.002C28.9066 173.88 29.5167 173.759 30.6571 173.637C31.5803 173.577 32.3151 173.455 32.8581 173.273C33.021 173.213 33.2926 173.152 33.6727 173.091C34.4873 172.998 35.7108 172.756 37.3399 172.36C38.2088 172.117 38.8892 171.948 39.378 171.858C40.4098 171.765 41.0615 171.66 41.333 171.539L41.7419 171.357L41.8249 171.264C42.2051 171.05 42.3967 170.532 42.3967 169.708C42.3967 169.465 42.4095 169.251 42.4383 169.069C42.4638 168.887 42.5053 168.779 42.5596 168.75C42.7226 168.507 42.8056 167.606 42.8056 166.051C42.8056 165.351 42.7226 164.907 42.5596 164.725C42.5053 164.664 42.2594 164.572 41.8249 164.45C41.7706 164.421 41.7419 164.358 41.7419 164.268L41.8249 163.767C41.8249 163.524 41.3617 162.914 40.4385 161.936C40.0041 161.508 39.7869 161.249 39.7869 161.16C39.7869 161.038 39.8955 160.978 40.1127 160.978C40.2756 160.978 40.5471 161.054 40.9273 161.208C41.7962 161.511 42.6651 161.665 43.534 161.665C43.8055 161.665 44.2942 161.636 45.0002 161.572C45.7062 161.511 46.3578 161.221 46.9552 160.703L47.0383 160.658C47.2012 160.505 47.4599 160.377 47.8113 160.269C48.1627 160.163 48.3959 160.048 48.5045 159.927C48.5045 159.745 48.6259 159.585 48.8719 159.448C49.1178 159.31 49.2392 159.183 49.2392 159.058C49.2392 158.933 49.0891 158.844 48.792 158.783C48.4917 158.723 48.3448 158.662 48.3448 158.601C48.3448 158.48 48.6419 158.25 49.2424 157.914C49.8398 157.579 50.2199 157.304 50.3828 157.09C50.5458 156.876 50.7502 156.694 50.993 156.541C51.239 156.387 51.5776 156.084 52.012 155.627C52.4465 155.17 52.7851 154.851 53.031 154.666C53.277 154.483 53.507 154.225 53.7242 153.889C54.1587 153.279 54.3759 152.822 54.3759 152.519C54.3759 152.366 54.4015 152.222 54.459 152.084C54.5133 151.947 54.5516 151.81 54.5803 151.672C54.6059 151.535 54.6474 151.407 54.7017 151.283C54.8103 150.947 54.8646 150.551 54.8646 150.094C54.919 149.912 54.9477 149.768 54.9477 149.66C54.9477 149.551 54.9605 149.484 54.9892 149.455C55.0148 149.427 55.0851 149.395 55.1937 149.363C55.5195 149.363 55.6824 149.455 55.6824 149.638L55.8453 150.506C56.0626 151.117 56.184 151.567 56.2127 151.854C56.2383 152.145 56.3085 152.442 56.4171 152.746L56.5002 153.113C56.6631 153.877 56.7462 154.621 56.7462 155.352C56.7462 156.145 56.2031 156.953 55.117 157.777C55.0084 157.898 54.9253 158.144 54.871 158.508C54.8167 158.876 54.6794 159.211 54.4622 159.515C54.3535 159.668 54.2992 159.805 54.2992 159.927C54.2992 160.262 54.3823 160.735 54.5452 161.345C54.5995 161.527 54.6538 161.757 54.7081 162.032C54.7624 162.307 54.8295 162.543 54.9126 162.741C54.9956 162.939 55.0627 163.16 55.117 163.406C55.1713 163.648 55.2384 163.862 55.3215 164.044C55.4045 164.227 55.4716 164.425 55.5259 164.639L56.0977 166.744C56.0977 167.261 56.1808 167.568 56.3437 167.657C56.5066 167.75 56.7781 167.795 57.1583 167.795C57.647 167.795 58.5447 167.734 59.848 167.613C61.7487 167.399 63.298 167.293 64.4927 167.293C64.9815 167.293 65.2274 167.37 65.2274 167.523C65.2274 167.555 65.1731 167.616 65.0645 167.705C64.9559 167.798 63.8953 168.041 61.886 168.437C61.1801 168.59 60.5955 168.718 60.1355 168.827C59.6723 168.935 59.4423 169.047 59.4423 169.168C59.4423 169.2 59.4678 169.239 59.5253 169.283C59.5796 169.328 59.6084 169.382 59.6084 169.443C59.6084 169.657 59.1995 169.794 58.3849 169.855L57.4873 169.948V170.497C57.4873 170.711 57.5128 170.877 57.5703 170.999C57.6246 171.12 57.679 171.229 57.7333 171.318C57.7876 171.411 57.8259 171.523 57.8546 171.66C57.8802 171.797 57.9217 171.957 57.976 172.139V172.277C58.3019 174.196 59.2506 175.449 60.8287 176.027C61.2088 176.148 61.426 176.302 61.4803 176.484C61.4803 176.666 61.359 176.889 61.113 177.148C60.867 177.407 60.7456 177.583 60.7456 177.675V177.79C60.7456 177.835 60.7999 177.883 60.9085 177.928C61.0171 177.972 61.097 178.027 61.1545 178.087C61.2088 178.148 61.2376 178.231 61.2376 178.34C61.2376 178.448 61.2503 178.515 61.2791 178.544C61.3046 178.576 61.3462 178.589 61.4005 178.589C61.5634 178.589 61.8477 178.56 62.2566 178.496C62.6655 178.435 63.084 178.352 63.5184 178.244C63.9528 178.138 64.2787 178.084 64.4959 178.084C64.7674 178.084 64.9048 178.161 64.9048 178.314C64.9048 178.528 64.5502 178.924 63.8442 179.502C63.5184 179.777 63.2469 180.029 63.0296 180.256C62.8124 180.486 62.6623 180.63 62.5824 180.691C62.4994 180.751 62.461 180.799 62.461 180.828C62.1895 181.135 61.9595 181.33 61.7678 181.422C61.5762 181.515 61.3462 181.697 61.0746 181.972C60.5316 182.428 59.9598 182.994 59.3624 183.665L59.1165 183.939C58.8449 184.182 58.6533 184.374 58.5447 184.511C58.436 184.649 58.2987 184.792 58.1358 184.946L57.3212 185.859L56.8324 186.316L55.446 187.872C54.5228 188.907 53.884 189.603 53.5294 189.951C53.1748 190.303 52.8649 190.629 52.5934 190.935C51.996 191.545 51.5616 191.849 51.2901 191.849H51.207C51.0984 191.849 51.0441 191.804 51.0441 191.712C51.0441 191.619 51.1271 191.469 51.2901 191.255C51.8331 190.341 52.159 189.638 52.2676 189.153C52.3762 188.846 52.5263 188.466 52.7148 188.009C52.9033 187.552 53.0534 187.223 53.162 187.025C53.2706 186.827 53.4208 186.492 53.6092 186.019C53.7977 185.546 54.0021 185.042 54.2194 184.511C54.4366 183.978 54.5452 183.591 54.5452 183.345C54.6538 182.614 54.8583 182.013 55.1553 181.54C55.4524 181.068 55.6026 180.604 55.6026 180.144C55.6026 180.023 55.561 179.793 55.4812 179.458C55.3981 179.122 55.0595 178.908 54.4622 178.819L53.0758 178.455V178.087C53.0215 177.995 52.9927 177.889 52.9927 177.768C52.9927 177.554 53.1269 177.295 53.4016 176.992L53.7274 176.442C53.5645 175.893 53.2099 175.161 52.6669 174.248L52.0152 173.059C51.8523 172.784 51.7149 172.532 51.6063 172.305C51.4977 172.075 51.4146 171.954 51.3603 171.938C51.306 171.922 51.2517 171.916 51.1974 171.916L51.0345 171.96C50.9259 171.96 50.5458 172.053 49.8941 172.235L48.4278 172.602C46.4185 172.97 45.3835 173.366 45.3324 173.791C45.2781 173.823 45.2366 173.922 45.211 174.088C45.1823 174.257 45.0896 174.43 44.9267 174.615C44.7095 175.104 44.5881 175.445 44.5594 175.643C44.5306 175.842 44.5051 176.011 44.4763 176.145C44.4476 176.282 44.406 176.365 44.3549 176.397C44.3006 176.551 44.2719 176.778 44.2719 177.084C44.2719 177.848 44.3805 178.349 44.5977 178.592C44.652 178.653 44.8437 178.685 45.1695 178.685C45.3867 178.685 45.6583 178.646 45.9841 178.57C46.3099 178.493 46.5815 178.455 46.7987 178.455C46.9616 178.455 47.0447 178.547 47.0447 178.729C47.099 178.79 47.1277 178.899 47.1277 179.049L46.9648 180.148C46.9648 180.33 47.0478 180.499 47.2108 180.649C47.3737 180.803 47.4567 180.94 47.4567 181.061C47.4567 181.154 47.4024 181.215 47.2938 181.243C47.1852 181.275 47.1181 181.304 47.0894 181.336C47.0606 181.368 47.0191 181.413 46.968 181.473C46.9137 181.534 46.8466 181.588 46.7635 181.633C46.6805 181.678 46.5719 181.764 46.4377 181.885C46.3003 182.007 46.1917 182.099 46.1119 182.16C46.0288 182.221 45.9202 182.313 45.786 182.435C45.6487 182.556 45.5401 182.671 45.4602 182.777C45.3771 182.882 45.2973 183.007 45.2142 183.141C45.1312 183.278 45.0641 183.393 45.0098 183.483C44.4667 184.214 44.1952 185.038 44.1952 185.952C44.1952 186.623 44.3581 187.354 44.684 188.147C44.7926 188.329 44.8884 188.559 44.9683 188.833C45.0481 189.108 45.144 189.383 45.2526 189.658C45.6327 190.724 46.0672 191.609 46.5559 192.309C46.6645 192.43 46.7603 192.59 46.8402 192.788C46.9233 192.986 47.1245 193.306 47.4503 193.75C47.7762 194.19 47.9391 194.459 47.9391 194.551C47.8848 194.673 47.8017 194.733 47.6931 194.733L47.6995 194.724ZM46.1502 170.076C46.4217 169.983 46.6517 169.909 46.8434 169.846C47.0319 169.785 47.2651 169.715 47.5366 169.641C47.8081 169.564 48.0253 169.497 48.1883 169.437C48.3512 169.376 48.5396 169.309 48.7601 169.232C48.9773 169.156 49.169 169.073 49.3319 168.98C49.4948 168.887 49.7408 168.798 50.0666 168.705C50.3924 168.613 50.5969 168.568 50.6767 168.568C50.7566 168.568 50.7981 168.43 50.7981 168.156L50.7151 167.517C50.7151 167.149 50.7278 166.868 50.7566 166.67C50.7821 166.472 50.8237 166.313 50.878 166.191C50.9323 166.07 50.9738 165.916 50.9994 165.734C51.0249 165.552 51.0409 165.383 51.0409 165.233C51.0409 165.083 51.0665 164.913 51.124 164.731V164.23L51.207 163.68C51.0984 163.68 50.894 163.757 50.5969 163.91C50.2966 164.064 50.0378 164.14 49.8238 164.14C49.6609 164.14 49.5523 164.08 49.498 163.958C49.498 163.898 49.5395 163.814 49.6194 163.706C49.7024 163.6 49.7951 163.463 49.9037 163.294C50.0123 163.128 50.0922 162.968 50.1497 162.815L50.2327 162.633C50.1241 162.633 49.8941 162.748 49.5395 162.974C49.1849 163.204 48.7665 163.364 48.2777 163.453C48.0605 163.514 47.8688 163.591 47.7059 163.683C47.543 163.776 47.4599 163.987 47.4599 164.322C47.4599 164.536 47.3513 165.163 47.1341 166.198C46.9169 167.022 46.8083 167.507 46.8083 167.661C46.754 167.964 46.6869 168.347 46.6038 168.804C46.5208 169.261 46.3706 169.689 46.1566 170.085L46.1502 170.076Z" fill="white"/>
<path d="M74.1014 192.848C73.8842 192.848 73.6127 192.733 73.2869 192.507C72.961 192.28 72.6767 191.996 72.4307 191.66C72.1848 191.325 71.8462 190.791 71.4117 190.06L70.923 189.283C70.4342 188.552 70.0796 188.063 69.8624 187.82C69.6452 187.578 69.428 187.134 69.2107 186.495C68.722 185.092 68.2332 184.009 67.7445 183.249C67.1471 182.182 66.6839 181.071 66.3581 179.911C66.2495 179.608 66.1952 179.362 66.1952 179.179C66.1952 178.937 66.3869 178.684 66.767 178.426C67.1471 178.167 67.4857 177.831 67.786 177.419C68.0831 177.007 68.2876 176.605 68.3962 176.209C68.3962 176.055 68.4505 175.889 68.5591 175.707L68.8849 175.25L68.3131 174.426C68.3131 174.244 68.1757 174.091 67.9042 173.969C67.4155 173.513 66.898 173.209 66.3549 173.056C65.8119 172.902 65.5403 172.752 65.5403 172.599C65.5403 172.506 65.732 172.401 66.1121 172.279C67.1439 171.851 67.6614 171.471 67.6614 171.136C67.6614 171.014 67.5401 170.906 67.2941 170.816C67.0481 170.727 66.9267 170.618 66.9267 170.497C66.9267 170.315 67.3069 170.085 68.0671 169.81C68.8274 169.535 69.2076 169.034 69.2076 168.302C69.2076 167.967 69.1532 167.51 69.0446 166.932C68.8274 166.172 68.6901 164.891 68.6357 163.089L68.5527 162.402C68.5527 162.035 68.5399 161.824 68.5112 161.763C68.4824 161.703 68.3898 161.626 68.2269 161.533C67.7381 161.319 67.2078 161.166 66.6392 161.077C66.0674 160.984 65.7831 160.847 65.7831 160.664C65.7831 160.511 66.0163 160.351 66.4763 160.185C66.9363 160.019 67.1695 159.859 67.1695 159.706C67.1695 159.645 67.128 159.569 67.0481 159.476C66.9651 159.383 66.9267 159.294 66.9267 159.201C66.9267 159.141 67.0226 159.048 67.211 158.927C67.3995 158.805 67.4953 158.729 67.4953 158.697C67.4953 158.575 67.211 158.432 66.6392 158.262C66.0674 158.096 65.7288 157.943 65.6202 157.805C65.5116 157.668 65.4573 157.492 65.4573 157.278L65.5403 156.777C65.5403 156.349 65.6234 155.953 65.7863 155.588C66.6552 152.966 67.4985 151.078 68.3131 149.918L68.9648 148.867C69.3449 148.168 69.7251 147.816 70.1052 147.816C70.3767 147.816 70.5141 147.893 70.5141 148.046L70.3512 148.321C69.6995 149.113 69.3737 150.136 69.3737 151.385C69.3737 152.177 69.428 152.726 69.5366 153.03C69.6452 153.518 70.0126 153.816 70.6355 153.921C71.2584 154.03 71.6801 154.151 71.8973 154.288C72.1145 154.426 72.2774 154.646 72.386 154.953C72.5489 155.381 72.846 155.684 73.2837 155.866C73.5552 155.959 73.7181 156.048 73.7724 156.141C73.7724 156.234 73.7181 156.384 73.6095 156.598C73.2294 157.026 73.0377 157.483 73.0377 157.968V158.47C73.0377 158.773 73.2262 159.086 73.6095 159.406C73.9896 159.725 74.2324 160.147 74.3442 160.664C74.4528 161.367 74.8585 161.853 75.5677 162.128C76.1107 162.281 76.4909 162.645 76.7081 163.226C76.871 163.562 77.117 163.929 77.4428 164.325C77.7687 164.721 78.1488 165.194 78.5832 165.744C79.778 167.389 80.6469 168.472 81.1899 168.989C81.6244 169.385 81.9374 169.781 82.1259 170.178C82.3144 170.574 82.736 171.168 83.3877 171.96C83.6592 172.267 83.8477 172.417 83.9595 172.417C84.1767 172.417 84.2853 172.279 84.2853 172.005C84.2853 171.395 84.0266 170.641 83.5123 169.74C82.9948 168.842 82.7392 168.2 82.7392 167.82C82.7392 167.44 82.6019 166.989 82.3303 166.472C82.1131 166.168 81.9757 165.808 81.9214 165.399C81.8671 164.987 81.7457 164.645 81.5541 164.37C81.3624 164.095 81.2698 163.897 81.2698 163.776C81.2698 163.623 81.3241 163.546 81.4327 163.546C81.7042 163.546 82.0971 163.699 82.6146 164.003C83.1289 164.309 83.5506 164.459 83.8764 164.459C84.0937 164.459 84.2278 164.338 84.2853 164.092L84.2023 163.591C84.2023 163.437 84.4067 163.332 84.8124 163.271C85.2213 163.21 85.5312 163.041 85.7484 162.77C85.7484 162.741 85.7899 162.699 85.8698 162.655C85.9496 162.61 86.0039 162.572 86.0327 162.54C86.0582 162.511 86.0742 162.479 86.0742 162.447C86.0742 162.415 86.0455 162.386 85.9912 162.354C85.9369 162.326 85.8825 162.284 85.8282 162.239C85.7739 162.195 85.7069 162.14 85.6238 162.08C85.5407 162.019 85.4481 161.942 85.3395 161.85C85.2309 161.757 85.1638 161.683 85.1351 161.62C85.1063 161.559 85.0935 161.498 85.0935 161.438L85.5024 159.655C85.5567 159.412 85.611 159.192 85.6653 158.991C85.7196 158.793 85.7484 158.601 85.7484 158.419L85.9113 157.55C86.0199 157.122 86.0742 156.665 86.0742 156.179C86.0742 155.662 86.0199 155.25 85.9113 154.943C85.857 154.851 85.8282 154.7 85.8282 154.486C85.7196 153.755 85.611 153.221 85.5024 152.886C85.2309 151.484 85.0935 150.599 85.0935 150.235C85.0935 149.899 85.2021 149.733 85.4194 149.733C85.6366 149.733 85.9337 149.915 86.317 150.283C87.4031 151.442 88.1634 152.416 88.5978 153.209C88.8151 153.665 89.0866 154.336 89.4124 155.221C89.521 155.649 89.6712 156.106 89.8596 156.592C90.0481 157.08 90.1982 157.492 90.3069 157.828L91.0416 159.658C91.3674 160.604 91.6645 161.687 91.9392 162.904C92.3194 164.702 92.511 166.028 92.511 166.881C92.511 167.612 92.3737 167.98 92.1021 167.98C91.8306 167.98 91.5431 167.865 91.246 167.638C90.9458 167.408 90.5944 167.181 90.1855 166.951C89.7766 166.721 89.4795 166.577 89.2878 166.517C89.0962 166.456 88.9748 166.424 88.9205 166.424C88.7575 166.424 88.6745 166.539 88.6745 166.766C88.6745 166.993 88.5659 167.172 88.3487 167.293V167.338C87.9142 167.552 87.697 167.766 87.697 167.977C87.697 168.223 87.9685 168.587 88.5116 169.075C88.8917 169.44 89.1089 169.702 89.1632 169.852C89.1632 170.005 89.0259 170.126 88.7544 170.216C88.2113 170.491 87.9398 171.452 87.9398 173.097C87.9398 174.742 88.2369 176.039 88.8374 176.985L89.4092 177.809C89.4635 177.962 89.5434 178.1 89.6552 178.221C89.7638 178.343 89.8596 178.489 89.9395 178.656C90.0225 178.825 90.1695 179.074 90.3867 179.409C90.6039 179.745 90.7126 179.988 90.7126 180.141C90.6582 180.294 90.4953 180.46 90.2238 180.643C89.5178 181.192 89.0003 181.892 88.6745 182.744C88.5116 183.355 88.2656 183.658 87.9398 183.658C87.451 183.658 86.7706 182.943 85.9017 181.508C85.8474 181.448 85.7644 181.333 85.6558 181.166C85.5471 181 85.3842 180.809 85.167 180.595C84.8412 180.259 84.6782 179.956 84.6782 179.681C84.6782 179.528 84.6495 179.406 84.5952 179.317L82.0684 176.391C80.8737 174.896 80.0431 173.937 79.5831 173.509C79.1199 173.081 78.8612 172.81 78.8101 172.685C78.7557 172.564 78.7014 172.487 78.6471 172.455C78.4842 172.212 78.1296 171.845 77.5866 171.356C77.5866 170.289 77.5738 169.686 77.5451 169.551C77.5163 169.414 77.2863 169.133 76.8519 168.705C76.7976 168.705 76.756 168.683 76.7305 168.635C76.7017 168.59 76.6474 168.536 76.5676 168.475C76.4845 168.414 76.066 168.063 75.3057 167.424C75.0342 167.271 74.7627 167.012 74.4912 166.648C73.568 165.613 72.9706 165.092 72.6991 165.092C72.6448 165.092 72.616 165.229 72.616 165.504C72.5074 166.296 72.4531 166.983 72.4531 167.561C72.5074 167.957 72.5362 168.523 72.5362 169.254C72.5362 169.864 72.5617 170.459 72.6192 171.037C72.7278 173.139 72.8364 174.244 72.9451 174.353C73.0537 174.461 73.1335 174.551 73.191 174.627C73.2453 174.704 73.3412 174.803 73.4753 174.924C73.6095 175.046 73.6798 175.154 73.6798 175.244C73.6798 175.458 73.5296 175.701 73.2326 175.975C72.9323 176.25 72.7853 176.448 72.7853 176.57C72.7853 176.723 73.0313 176.822 73.5201 176.867C74.0088 176.911 74.3059 177.026 74.4177 177.208V177.253C74.472 177.285 74.5103 177.323 74.5391 177.368C74.5646 177.413 74.7435 177.451 75.0694 177.483C75.3952 177.515 75.7466 177.544 76.1299 177.576C77.0531 177.668 77.5163 177.806 77.5163 177.988L77.3534 178.307C77.0819 178.825 76.9445 179.588 76.9445 180.595C76.7273 180.748 76.4813 180.869 76.2098 180.959C75.3409 181.265 74.6062 181.706 74.0088 182.284L73.5999 182.697C72.8396 183.275 72.4307 184.741 72.3764 187.086C72.3764 187.846 72.4595 188.466 72.6224 188.938C72.7853 189.411 73.1112 190.133 73.5999 191.111L74.4145 192.529L74.3314 192.666C74.2771 192.727 74.2356 192.772 74.2101 192.804C74.1813 192.833 74.1398 192.848 74.0887 192.848H74.1014Z" fill="white"/>
<path d="M95.0443 190.427C94.9357 190.395 94.8814 190.35 94.8814 190.29C94.8814 190.136 94.9229 190.015 95.0028 189.925C95.0826 189.836 95.1529 189.721 95.2072 189.584C95.2615 189.446 95.3286 189.315 95.4116 189.194C95.4947 189.073 95.5873 188.887 95.696 188.644C95.8046 188.402 95.9132 188.188 96.0218 188.006C97.8682 184.712 98.7914 182.061 98.7914 180.048C98.7914 179.163 98.6412 178.425 98.3441 177.831C98.0439 177.237 97.8139 176.879 97.651 176.758L97.2421 176.528C96.9705 176.375 96.8332 176.237 96.8332 176.116C96.8332 175.994 96.9162 175.879 97.0791 175.774C97.2421 175.669 97.3251 175.566 97.3251 175.477C97.3251 175.416 97.2836 175.362 97.2037 175.317C97.1239 175.273 97.0823 175.202 97.0823 175.113C97.0823 174.777 97.4082 174.397 98.0598 173.969L98.5486 173.605L98.3026 172.644C97.8139 171.273 97.405 170.008 97.0791 168.849C96.9705 168.42 96.846 168.117 96.7118 167.935C96.5744 167.753 96.5073 167.568 96.5073 167.385C96.5073 167.203 96.5616 166.989 96.6703 166.747C96.7789 166.625 96.8587 166.488 96.9162 166.334C96.9705 166.181 97.0248 166.053 97.0791 165.945C97.1335 165.839 97.1878 165.715 97.2421 165.581C97.2964 165.443 97.3507 165.328 97.405 165.239C97.4593 165.146 97.488 165.057 97.488 164.964L97.3251 164.188C97.3251 163.852 97.2037 163.6 96.9578 163.434C96.7118 163.268 96.4147 163.182 96.0601 163.182C95.7055 163.182 95.5298 163.089 95.5298 162.907C95.5298 162.754 95.6512 162.61 95.8972 162.472C96.1432 162.335 96.2901 162.22 96.3444 162.131C96.3444 162.07 96.2901 162.009 96.1815 161.949C96.0729 161.888 96.0186 161.795 96.0186 161.674C96.0186 161.552 96.1528 161.393 96.4275 161.195C96.699 160.997 96.8875 160.76 96.9993 160.485C97.1079 160.211 97.1622 159.831 97.1622 159.342L97.2453 158.109V157.789C97.2453 157.24 97.1239 156.502 96.8779 155.572C96.6319 154.643 96.2933 153.828 95.8589 153.125C95.8046 153.065 95.696 152.806 95.533 152.349C95.3701 151.892 95.073 151.464 94.6354 151.068C94.4182 150.794 94.3096 150.595 94.3096 150.474C94.3096 150.353 94.3926 150.292 94.5555 150.292C94.7728 150.292 95.2072 150.461 95.8589 150.794C97.2165 151.586 98.2068 152.212 98.8329 152.669C99.4558 153.125 100.015 153.646 100.504 154.224L100.992 154.726C102.024 155.914 102.622 156.738 102.784 157.195L103.03 157.607H103.276C103.928 157.607 104.35 157.652 104.538 157.745C104.727 157.837 104.851 158.013 104.906 158.272C104.96 158.53 105.231 158.661 105.72 158.661C106.046 158.661 106.413 158.607 106.819 158.502C107.228 158.396 107.538 158.342 107.755 158.342C108.244 158.342 108.72 158.572 109.18 159.029C109.64 159.486 109.982 159.776 110.199 159.898L110.282 159.99H110.365L110.528 160.172C110.854 160.415 111.125 160.645 111.342 160.859C111.722 161.227 112.157 161.584 112.646 161.933C113.134 162.284 113.732 162.747 114.438 163.329C114.438 163.36 114.572 163.45 114.847 163.603C116.096 164.395 116.722 164.884 116.722 165.066C116.722 165.159 116.639 165.28 116.476 165.434C116.204 165.862 116.067 166.44 116.067 167.171C116.067 167.903 116.255 168.574 116.639 169.091C116.91 169.455 117.048 169.746 117.048 169.96C117.048 170.296 116.802 170.526 116.313 170.647C115.444 170.861 114.792 171.593 114.358 172.842L114.112 173.666C113.895 174.215 113.773 174.864 113.745 175.608C113.716 176.355 113.649 176.911 113.54 177.279C113.432 177.643 113.256 177.965 113.01 178.24C112.764 178.515 112.642 178.668 112.642 178.697C112.642 178.726 112.668 178.751 112.726 178.767C112.78 178.783 112.809 178.806 112.809 178.838C112.809 179.052 112.048 179.601 110.528 180.483C109.496 181.122 108.79 181.61 108.41 181.946C107.487 182.649 106.292 183.089 104.826 183.271C104.283 183.364 103.752 183.629 103.238 184.073C102.721 184.514 102.315 185.057 102.015 185.696C101.714 186.335 100.532 187.341 98.4687 188.715C96.7853 189.874 95.6448 190.453 95.0475 190.453L95.0443 190.427ZM104.906 178.812C105.014 178.812 105.257 178.691 105.64 178.448C106.183 178.08 106.563 177.672 106.781 177.212C107.432 175.749 107.892 175.017 108.167 175.017C108.384 175.017 108.547 175.094 108.656 175.247C108.656 175.886 108.71 176.209 108.819 176.209C108.927 176.209 109.036 176.116 109.145 175.934C109.579 175.566 110.042 175.234 110.531 174.928L110.448 174.103V173.052C110.448 172.656 110.461 172.375 110.489 172.206C110.515 172.04 110.745 171.803 111.183 171.497L111.592 171.085L111.429 170.765C111.157 170.398 111.02 169.912 111.02 169.302C111.02 168.328 111.154 167.58 111.429 167.063C111.592 166.82 111.675 166.606 111.675 166.424C111.675 166.057 111.294 165.874 110.534 165.874C110.317 165.874 110.138 165.868 110.004 165.852C109.867 165.836 109.691 165.769 109.474 165.648C109.419 165.648 109.391 165.632 109.391 165.603C109.282 165.603 109.228 165.641 109.228 165.718C109.228 165.795 109.199 165.862 109.145 165.922C109.036 166.686 108.736 167.369 108.247 167.98C107.107 169.261 106.317 169.899 105.883 169.899C105.612 169.899 105.474 169.778 105.474 169.532C105.474 169.379 105.528 169.136 105.637 168.801C105.8 167.916 106.017 167.2 106.289 166.651L106.372 166.012V164.274C106.317 164.031 106.209 163.91 106.046 163.91L105.394 163.955C104.96 163.955 104.58 163.773 104.254 163.405C104.091 163.252 103.928 163.175 103.765 163.175C103.385 163.114 103.113 162.878 102.951 162.466C102.788 162.054 102.65 161.849 102.542 161.849L102.459 161.942C102.404 162.035 102.376 162.217 102.376 162.492L102.459 163.453C102.513 163.606 102.567 164.003 102.622 164.641V167.066C102.622 168.194 102.647 168.948 102.705 169.331C102.759 169.711 102.839 170.018 102.951 170.244C103.059 170.474 103.113 170.711 103.113 170.954C103.113 171.35 102.842 171.854 102.299 172.461C102.353 172.675 102.42 172.874 102.503 173.056C102.586 173.238 102.653 173.439 102.708 173.65C102.762 173.864 102.816 174.062 102.871 174.244C103.034 174.579 103.117 174.959 103.117 175.388C103.117 175.752 103.075 176.141 102.995 176.554C102.912 176.966 102.874 177.231 102.874 177.352C102.874 177.413 102.899 177.445 102.957 177.445C103.014 177.445 103.066 177.352 103.12 177.17L103.692 176.256C104.072 175.707 104.426 174.947 104.752 173.969C104.752 173.694 104.819 173.519 104.957 173.442C105.091 173.365 105.215 173.327 105.324 173.327C105.541 173.327 105.65 173.48 105.65 173.784L105.567 174.285C105.567 174.742 105.525 175.314 105.445 176.001C105.362 176.688 105.241 177.349 105.078 177.991C104.969 178.355 104.915 178.63 104.915 178.815L104.906 178.812Z" fill="white"/>
<path d="M137.176 192.941C137.067 192.941 136.971 192.932 136.892 192.919C136.809 192.903 136.741 192.865 136.687 192.804L136.278 192.484C136.115 192.27 135.735 191.967 135.138 191.571C134.16 190.807 133.454 190.137 133.02 189.558C132.748 189.252 132.531 189.025 132.368 188.872C132.205 188.718 132.042 188.542 131.879 188.344C131.717 188.146 131.554 187.955 131.391 187.773C131.119 187.316 130.873 186.964 130.656 186.722C129.841 185.744 129.298 184.511 129.027 183.016C128.81 181.735 128.564 181.02 128.292 180.866C128.238 180.837 128.129 180.729 127.966 180.547C127.803 180.365 127.666 180.195 127.557 180.045C127.449 179.892 127.353 179.78 127.273 179.703C127.19 179.627 127.123 179.566 127.069 179.521C127.014 179.477 126.986 179.406 126.986 179.317L127.069 178.997V178.585L126.334 178.129V177.49C126.334 177.033 126.305 176.79 126.251 176.758C126.197 176.729 126.005 176.522 125.679 176.142C125.353 175.762 125.082 175.57 124.864 175.57C124.539 175.57 124.376 176.135 124.376 177.263C124.376 178.116 124.484 178.972 124.702 179.825L124.785 180.374C124.785 180.556 124.702 180.649 124.539 180.649C124.484 180.649 124.417 180.643 124.334 180.627C124.251 180.611 124.171 180.55 124.088 180.445C124.005 180.339 123.855 179.965 123.641 179.323C123.532 179.049 123.437 178.79 123.357 178.547C123.274 178.304 123.207 178.119 123.152 177.998C123.098 177.876 123.044 177.694 122.989 177.448C122.881 177.081 122.756 176.701 122.622 176.305C122.485 175.908 122.363 175.65 122.255 175.528C121.929 175.011 121.696 174.318 121.561 173.449C121.427 172.58 121.331 172.078 121.277 171.941C121.223 171.804 121.194 171.583 121.194 171.277L121.031 169.446C121.031 169.203 121.073 169.056 121.153 169.012C121.232 168.967 121.399 168.935 121.641 168.919C121.887 168.903 122.101 168.881 122.293 168.852C122.481 168.823 122.632 168.775 122.74 168.715C123.772 168.347 124.398 168.165 124.615 168.165C124.833 168.165 124.941 168.06 124.941 167.846V167.753C124.941 167.539 125.024 167.389 125.187 167.296C125.35 167.204 125.647 167.143 126.085 167.114C128.257 166.839 129.343 166.641 129.343 166.52C129.343 166.491 128.934 166.399 128.12 166.245L124.861 165.788C124.427 165.76 124.047 165.712 123.721 165.651C122.635 165.469 121.44 165.3 120.137 165.15C119.811 165.121 119.648 165.057 119.648 164.967C119.648 164.814 119.948 164.632 120.546 164.418C121.469 164.051 122.296 163.61 123.031 163.092C123.766 162.575 124.13 162.185 124.13 161.926C124.13 161.668 124.213 161.498 124.376 161.425C124.539 161.348 124.89 161.297 125.436 161.265C126.305 161.204 126.957 161.112 127.391 160.99C127.826 160.869 128.369 160.623 129.02 160.259C130.921 159.192 131.873 158.202 131.873 157.288V156.876C131.873 156.723 131.915 156.601 131.994 156.509C132.078 156.416 132.253 156.355 132.525 156.327C132.796 156.298 132.934 156.25 132.934 156.189V156.144C132.934 156.084 132.892 156.007 132.812 155.914C132.729 155.822 132.691 155.716 132.691 155.595C132.691 155.292 132.908 154.978 133.343 154.659C133.777 154.34 133.994 153.828 133.994 153.126C133.994 152.423 133.777 151.541 133.343 150.474C133.071 149.957 132.854 149.65 132.691 149.561C132.528 149.468 132.445 149.363 132.445 149.241C132.445 149.088 132.554 149.011 132.771 149.011C133.314 149.072 134.371 149.941 135.949 151.618C136.872 152.656 137.578 153.614 138.067 154.499C138.121 154.531 138.176 154.592 138.23 154.681C138.284 154.774 138.393 154.956 138.556 155.231C138.664 155.323 138.76 155.477 138.84 155.688C138.923 155.902 139.016 156.138 139.124 156.397C139.233 156.656 139.313 156.892 139.37 157.106C139.425 157.32 139.479 157.473 139.533 157.563C139.859 158.326 140.076 159.147 140.185 160.032C140.185 160.336 140.211 160.527 140.268 160.604C140.322 160.681 140.377 160.764 140.431 160.856C140.594 161.406 140.687 161.818 140.715 162.089C140.741 162.364 140.77 162.584 140.798 162.754C140.824 162.923 140.84 163.067 140.84 163.188C140.84 163.463 140.757 163.6 140.594 163.6C140.159 163.6 139.588 163.022 138.882 161.862C138.067 160.521 137.495 159.85 137.169 159.85C137.007 159.85 136.924 160.048 136.924 160.444C136.924 160.658 136.853 160.84 136.719 160.994C136.582 161.147 136.515 161.252 136.515 161.313C136.515 161.527 136.297 161.632 135.863 161.632H135.374C134.994 161.632 134.505 161.725 133.908 161.907C133.311 162.089 132.304 162.501 130.892 163.143C130.512 163.326 130.049 163.508 129.506 163.693C129.615 163.693 129.723 163.715 129.832 163.76C129.94 163.805 130.183 163.83 130.567 163.83C133.445 164.044 135.32 164.21 136.189 164.332C137.058 164.453 137.575 164.514 137.738 164.514C139.639 164.514 140.725 164.667 140.996 164.971C140.996 165.124 140.642 165.351 139.936 165.657L139.61 165.84C140.099 165.84 140.37 165.9 140.425 166.022C140.425 166.143 140.316 166.28 140.099 166.434C139.664 166.68 139.31 167.089 139.038 167.67C138.658 168.616 138.358 169.242 138.141 169.545C138.032 169.638 137.895 169.682 137.732 169.682C137.46 169.682 137.256 169.357 137.122 168.699C136.984 168.044 136.796 167.686 136.55 167.625C136.304 167.565 135.965 167.533 135.531 167.533L134.716 167.488C134.553 167.488 134.307 167.494 133.981 167.51C133.656 167.526 133.33 167.609 133.004 167.763L132.758 167.855C131.4 168.344 130.285 168.695 129.417 168.906C128.874 169.028 128.41 169.274 128.03 169.638C127.704 170.066 127.541 170.462 127.541 170.826C127.541 170.947 127.596 171.024 127.704 171.056C128.519 171.299 129.305 171.423 130.068 171.423C130.448 171.423 130.803 171.395 131.129 171.331L131.375 171.286C131.429 171.286 131.467 171.302 131.496 171.331C131.522 171.363 131.579 171.407 131.659 171.468C131.742 171.529 131.78 171.577 131.78 171.606C131.78 171.666 131.697 171.743 131.534 171.836C131.046 172.078 130.8 172.276 130.8 172.43C130.8 172.551 130.963 172.644 131.289 172.704C131.94 172.765 132.266 172.902 132.266 173.117L132.103 173.573C131.94 174.001 131.857 174.442 131.857 174.899C131.857 175.356 131.94 175.752 132.103 176.087C132.483 176.697 132.675 177.397 132.675 178.189C132.675 178.982 133.026 179.378 133.735 179.378C134.17 179.378 134.739 179.224 135.448 178.921C136.968 178.371 138.393 177.525 139.725 176.384C141.057 175.241 142.073 173.998 142.782 172.657C143.217 171.804 143.488 171.347 143.597 171.286C143.705 171.225 143.843 171.193 144.006 171.193C144.169 171.193 144.252 171.286 144.252 171.468C144.252 171.836 144.197 172.276 144.089 172.794C143.926 174.043 143.3 175.407 142.214 176.886C141.127 178.365 140.476 179.288 140.259 179.652C140.096 179.866 139.933 180.154 139.77 180.521C139.77 180.675 139.728 180.841 139.648 181.023C139.565 181.205 139.473 181.374 139.364 181.524C139.255 181.678 139.172 181.831 139.118 181.981C139.064 182.134 139.009 182.256 138.955 182.348C138.738 182.684 138.546 182.85 138.383 182.85C138.166 182.85 137.907 182.796 137.61 182.69C137.31 182.585 137.109 182.531 137 182.531C136.837 182.531 136.754 182.591 136.754 182.713C136.754 182.834 136.428 183.125 135.777 183.582C135.288 183.917 134.962 184.192 134.799 184.406C134.636 184.62 134.553 184.939 134.553 185.367C134.553 186.677 134.812 188.012 135.326 189.37C135.841 190.727 136.508 191.74 137.323 192.411C137.486 192.532 137.569 192.641 137.569 192.73C137.569 192.884 137.431 192.96 137.16 192.96L137.176 192.941Z" fill="white"/>
<path d="M172.947 192.711C172.784 192.711 172.701 192.65 172.701 192.529C172.701 192.347 172.797 192.063 172.986 191.683C173.174 191.302 173.433 190.791 173.759 190.149L174.736 187.773C174.791 187.498 174.858 187.271 174.941 187.086C175.024 186.904 175.104 186.619 175.187 186.239C175.266 185.859 175.362 185.485 175.471 185.118L175.634 184.342C176.068 182.725 176.285 181.553 176.285 180.821C176.285 180.304 176.202 179.831 176.04 179.403L175.634 178.122C175.525 177.726 175.388 177.467 175.225 177.346C175.062 177.224 174.982 177.103 174.982 176.982C174.982 176.889 175.062 176.768 175.225 176.614C175.551 176.311 175.848 175.944 176.123 175.515C176.394 175.087 176.528 174.784 176.528 174.602C176.528 174.509 176.148 174.174 175.388 173.596C175.171 173.382 175.062 173.168 175.062 172.957C175.062 172.864 175.088 172.775 175.145 172.682C175.199 172.589 175.225 172.516 175.225 172.452C175.225 172.177 174.762 172.04 173.839 172.04C173.35 172.04 173.104 171.919 173.104 171.673C173.104 171.276 173.727 170.574 174.979 169.567C175.956 168.836 177.017 167.753 178.157 166.322L178.729 165.635V164.859C178.729 163.885 178.429 163.182 177.832 162.757C175.008 160.441 173.321 159.281 172.778 159.281C172.724 159.281 172.657 159.297 172.574 159.326C172.49 159.358 172.206 159.371 171.717 159.371C171.446 159.371 171.12 159.479 170.74 159.69C169.817 160.268 169.354 160.834 169.354 161.383C169.354 161.658 169.053 162.405 168.456 163.623C168.021 164.415 167.667 165.405 167.395 166.593C167.124 167.782 166.986 169.002 166.986 170.251L167.232 170.388C167.884 170.692 168.264 170.938 168.373 171.12C168.373 171.334 168.264 171.561 168.047 171.807C167.613 172.203 167.395 172.51 167.395 172.72C167.395 172.931 167.708 173.1 168.331 173.222C168.954 173.343 169.267 173.541 169.267 173.816C169.267 174.059 168.996 174.365 168.453 174.73C168.29 174.822 168.073 175.02 167.801 175.324L166.986 176.1C166.443 176.528 166.172 177.228 166.172 178.202C166.172 178.537 166.197 178.927 166.255 179.368C166.309 179.809 166.338 180.259 166.338 180.716C166.338 182.118 166.121 182.821 165.686 182.821C165.469 182.821 165.223 182.546 164.952 181.997L163.076 176.097C162.914 175.394 162.479 174.8 161.773 174.314C161.393 174.072 161.201 173.765 161.201 173.401C161.201 173.097 161.473 172.593 162.016 171.893L161.69 170.523C161.636 170.28 161.54 170.072 161.406 169.906C161.268 169.74 161.01 168.97 160.633 167.596C160.524 167.443 160.348 167.229 160.102 166.958C159.856 166.686 159.735 166.44 159.735 166.226C159.735 165.983 159.844 165.747 160.061 165.517C160.278 165.287 160.387 165.098 160.387 164.945C160.387 164.792 160.316 164.664 160.182 164.555C160.045 164.45 159.828 164.29 159.531 164.076C159.23 163.862 158.946 163.635 158.675 163.389C158.403 163.147 158.199 162.971 158.064 162.862C157.927 162.757 157.806 162.658 157.697 162.565C157.534 162.658 157.342 162.779 157.125 162.933C156.908 163.086 156.662 163.262 156.391 163.46C156.119 163.658 155.847 163.856 155.576 164.054C155.304 164.252 155.087 164.412 154.924 164.533C154.055 165.172 153.621 165.677 153.621 166.041L154.03 168.098C154.138 168.465 154.193 169.242 154.193 170.43V171.986C154.193 172.232 154.276 172.398 154.439 172.487C154.602 172.577 154.848 172.64 155.173 172.669L155.419 172.714C156.18 172.835 156.56 173.033 156.56 173.308C156.56 173.461 156.451 173.675 156.234 173.947L155.908 174.404C155.908 174.436 156.343 174.449 157.211 174.449C158.352 174.449 158.924 174.557 158.924 174.768C158.924 174.889 158.761 175.059 158.435 175.269C157.946 175.637 157.457 176.148 156.969 176.803C156.48 177.458 156.1 178.052 155.828 178.585C155.557 179.119 155.419 179.873 155.419 180.85C155.419 181.064 155.445 181.553 155.502 182.313C155.557 183.077 155.758 184.144 156.113 185.514C156.464 186.884 156.914 187.983 157.457 188.808C157.566 189.022 157.62 189.188 157.62 189.309C157.62 189.43 157.566 189.491 157.457 189.491C157.186 189.491 156.831 189.261 156.397 188.804C156.125 188.348 155.8 187.904 155.419 187.479C155.202 187.265 154.998 187.044 154.809 186.814C154.618 186.587 154.471 186.396 154.362 186.242L153.464 184.917C153.193 184.367 152.867 183.85 152.487 183.361C152.107 182.872 151.752 182.332 151.426 181.738C151.101 181.144 150.762 180.611 150.407 180.138C150.053 179.665 149.756 179.125 149.51 178.515C149.264 177.905 149.101 177.515 149.021 177.349C148.938 177.183 148.9 177.007 148.9 176.822C148.791 176.458 148.737 176.046 148.737 175.589V174.401C148.737 174.247 148.925 173.96 149.308 173.532C149.58 173.228 149.717 172.845 149.717 172.388C149.717 171.931 149.609 171.497 149.391 171.085C149.174 170.673 148.874 170.385 148.494 170.216C148.114 170.05 147.922 169.842 147.922 169.599C147.922 169.232 148.302 168.775 149.062 168.229C149.28 168.108 149.388 167.999 149.388 167.91C149.388 167.788 149.238 167.705 148.941 167.657C148.641 167.612 148.465 167.564 148.411 167.52C148.356 167.475 148.219 167.344 148.002 167.13L147.513 167.175C147.133 167.175 146.874 167.152 146.74 167.108C146.603 167.063 146.536 166.887 146.536 166.581C146.536 166.274 146.59 165.756 146.699 165.025L146.861 163.654C146.861 162.434 146.945 161.399 147.107 160.546C147.27 159.693 147.922 158.186 149.062 156.02L149.225 155.745C149.225 155.592 149.213 155.502 149.184 155.47C149.155 155.442 149.142 155.41 149.142 155.378V155.218C149.142 155.141 149.388 154.86 149.877 154.371C149.931 154.25 150.228 153.931 150.775 153.41L152.893 151.215L153.464 150.576C153.464 150.548 153.49 150.532 153.547 150.532C153.765 150.289 153.928 150.129 154.036 150.053C154.145 149.976 154.282 149.938 154.445 149.938C154.662 149.938 154.771 149.998 154.771 150.12C154.771 150.273 154.621 150.509 154.324 150.829C154.023 151.148 153.659 151.765 153.225 152.682C152.899 153.413 152.653 153.918 152.49 154.189C152.164 154.799 151.88 155.493 151.634 156.269C151.388 157.045 151.267 157.604 151.267 157.94C151.484 159.374 151.634 160.144 151.714 160.249C151.797 160.358 151.835 160.546 151.835 160.821C151.835 161.278 151.998 161.508 152.324 161.508C152.65 161.508 153.084 161.348 153.627 161.029C154.17 160.709 154.551 160.549 154.768 160.549L155.419 160.642C155.474 160.642 155.608 160.46 155.828 160.093C156.046 159.725 156.237 159.361 156.4 158.994C156.672 158.444 156.902 158.131 157.093 158.058C157.282 157.981 157.461 157.943 157.624 157.943C157.841 157.943 158.1 157.975 158.397 158.035C158.694 158.096 158.898 158.166 159.007 158.24C159.115 158.317 159.211 158.444 159.291 158.63C159.371 158.815 159.547 159.042 159.821 159.316C160.527 160.109 161.259 160.751 162.022 161.236C162.837 161.907 163.297 162.243 163.409 162.243C163.521 162.243 163.818 161.815 164.306 160.962C164.795 160.109 165.581 159.499 166.67 159.131C166.67 157.821 166.753 157.08 166.916 156.914C167.079 156.748 167.459 156.662 168.057 156.662C168.328 156.662 168.696 156.592 169.156 156.457C169.616 156.32 169.983 156.16 170.254 155.978C170.797 155.735 171.152 155.384 171.315 154.927C171.369 154.624 171.503 154.135 171.724 153.464L172.296 151.362C172.404 150.327 172.513 149.64 172.621 149.305L172.867 147.797C172.867 147.462 172.813 147.142 172.705 146.836C172.596 146.532 172.542 146.274 172.542 146.06C172.542 145.663 172.705 145.465 173.03 145.465C173.356 145.465 173.682 145.724 174.008 146.242C174.877 147.462 175.691 148.832 176.452 150.356C176.615 150.723 176.94 151.27 177.429 152.001L177.592 152.369C177.864 152.733 178.081 153.132 178.244 153.557C178.515 154.135 178.854 154.784 179.263 155.499C179.668 156.215 179.981 156.703 180.199 156.962C180.416 157.221 180.55 157.534 180.608 157.898C180.771 158.569 181.448 159.102 182.646 159.499C183.189 159.652 183.486 159.802 183.543 159.955C183.543 160.109 183.326 160.323 182.892 160.594C182.131 161.083 181.751 161.54 181.751 161.965C181.751 162.268 181.968 162.559 182.403 162.834C182.674 162.955 182.837 163.064 182.892 163.153C182.892 163.274 182.85 163.389 182.77 163.495C182.69 163.603 182.649 163.686 182.649 163.747C182.649 163.9 182.853 164.038 183.259 164.159C183.668 164.281 183.869 164.402 183.869 164.527C183.815 164.709 183.134 165.165 181.831 165.897V166.446C181.722 166.814 181.588 167.117 181.425 167.36C181.317 167.481 181.221 167.619 181.141 167.772C181.061 167.925 181.02 168.047 181.02 168.139C180.965 168.382 180.786 168.651 180.489 168.941C180.189 169.232 180.042 169.468 180.042 169.65C180.042 169.804 180.205 169.948 180.531 170.085C180.857 170.222 181.968 170.305 183.872 170.337C185.23 170.337 185.949 170.408 186.032 170.542C186.112 170.679 186.153 170.871 186.153 171.114C186.153 171.692 185.69 172.439 184.767 173.353C184.278 173.842 184.032 174.391 184.032 174.998C184.032 175.305 184.099 175.547 184.236 175.729C184.371 175.912 184.441 176.11 184.441 176.324C184.441 176.873 184.169 177.375 183.626 177.831C182.432 179.052 181.697 180.272 181.425 181.489L179.876 185.239C179.605 185.757 179.087 186.488 178.327 187.434C177.241 189.14 175.992 190.558 174.58 191.686C173.819 192.357 173.276 192.692 172.95 192.692L172.947 192.711Z" fill="white"/>
<path d="M209.945 195.318C209.728 195.318 209.428 195.235 209.048 195.065C208.667 194.896 208.476 194.784 208.476 194.724L207.415 193.992C206.22 193.2 205.08 192.238 203.994 191.111C202.908 189.983 202.064 188.871 201.467 187.773C201.196 187.284 200.87 186.766 200.49 186.217C199.892 185.239 199.592 183.901 199.592 182.192C199.592 181.582 199.496 181.218 199.308 181.093C199.116 180.972 198.832 180.85 198.452 180.726C198.289 180.726 197.963 180.559 197.474 180.224C197.094 180.01 196.902 179.569 196.902 178.898C196.902 177.314 195.733 176.186 193.398 175.515C192.475 175.241 191.849 175.03 191.523 174.877C191.197 174.723 190.842 174.436 190.462 174.008C190.354 173.886 190.216 173.771 190.053 173.666C189.89 173.56 189.811 173.413 189.811 173.231C189.811 172.928 190.108 172.561 190.708 172.133C190.925 171.979 191.034 171.72 191.034 171.356C191.034 171.113 190.964 170.784 190.83 170.372C190.692 169.96 190.625 169.708 190.625 169.618C190.625 169.283 190.542 168.986 190.379 168.727C190.216 168.469 190.053 168.117 189.89 167.676C189.728 167.235 189.619 166.983 189.565 166.922C189.51 166.862 189.485 166.817 189.485 166.785C189.322 166.664 189.239 166.555 189.239 166.466C189.239 166.223 189.916 165.871 191.277 165.415L191.44 165.322C191.928 165.14 192.28 164.987 192.5 164.865C193.098 164.53 193.478 164.332 193.641 164.271C194.021 164.057 194.375 163.738 194.701 163.309C194.864 163.067 195.04 162.859 195.232 162.693C195.42 162.527 195.708 162.389 196.088 162.281C196.468 162.175 196.727 162.067 196.861 161.961C196.995 161.856 197.228 161.543 197.554 161.022L197.8 160.61C197.8 160.428 197.637 160.214 197.311 159.971C197.203 159.818 197.148 159.668 197.148 159.514C197.148 159.393 197.174 159.284 197.228 159.195C197.282 159.102 197.311 159.029 197.311 158.965C197.311 158.844 197.065 158.713 196.576 158.575C196.088 158.438 195.842 158.278 195.842 158.096C195.842 157.943 196.084 157.777 196.576 157.595C197.337 157.291 198.097 156.895 198.857 156.406C200.595 155.371 201.464 153.844 201.464 151.832L201.301 150.688L201.218 150.187C201.218 149.944 201.301 149.819 201.464 149.819C201.681 149.819 201.898 149.973 202.116 150.276C202.224 150.458 202.333 150.794 202.441 151.282C202.55 151.953 202.671 152.404 202.809 152.63C202.943 152.86 203.068 153.103 203.176 153.362C203.285 153.621 203.365 153.841 203.422 154.026L203.911 155.263L204.317 156.633C204.534 157.671 204.818 158.387 205.173 158.783C205.524 159.179 206.083 159.422 206.843 159.514C207.223 159.546 207.415 159.697 207.415 159.971L207.252 160.978C207.252 162.166 207.875 163.217 209.127 164.134C209.29 164.255 209.479 164.392 209.699 164.546C209.916 164.699 210.108 164.849 210.271 165.003C210.977 165.552 211.954 166.069 213.203 166.558C213.855 166.833 214.181 167.031 214.181 167.152C214.181 167.334 214.072 167.641 213.855 168.066C213.801 168.187 213.775 168.341 213.775 168.523C213.775 169.468 213.788 170.047 213.817 170.261C213.842 170.475 214.021 170.992 214.347 171.816C214.456 171.909 214.577 172.228 214.714 172.778C214.849 173.327 214.919 173.679 214.919 173.829C214.919 173.921 214.89 174.02 214.836 174.126C214.782 174.234 214.238 174.346 213.207 174.468C210.111 174.924 208.562 175.975 208.562 177.624L208.645 178.125C208.645 178.218 208.632 178.333 208.603 178.467C208.575 178.604 208.412 178.71 208.115 178.787C207.814 178.863 207.53 178.978 207.259 179.128C206.77 179.403 206.524 179.617 206.524 179.767C206.524 179.799 206.578 179.812 206.687 179.812C206.795 179.812 206.917 179.873 207.054 179.994C207.188 180.115 207.351 180.214 207.543 180.291C207.731 180.368 208.099 180.451 208.642 180.544L209.377 180.681C210.028 180.802 210.354 180.988 210.354 181.23C210.354 181.384 210.191 181.566 209.865 181.78L209.293 182.419C209.131 182.725 208.968 182.952 208.805 183.105C207.827 183.837 207.217 184.431 206.971 184.888C206.728 185.345 206.604 185.91 206.604 186.581C206.604 187.252 206.725 188.082 206.971 189.073C207.217 190.063 207.501 190.894 207.827 191.564C208.099 192.021 208.425 192.548 208.805 193.142C209.185 193.737 209.498 194.187 209.741 194.49C209.987 194.794 210.108 195.024 210.108 195.177C210.108 195.27 210.054 195.315 209.945 195.315V195.318ZM202.202 178.537C202.31 178.509 202.448 178.247 202.611 177.761C203.045 176.816 203.48 176.193 203.914 175.886C204.131 175.765 204.265 175.672 204.32 175.611C204.32 175.49 204.291 175.381 204.24 175.292C203.643 174.956 203.071 174.493 202.528 173.896C201.985 173.302 201.713 172.807 201.713 172.41C201.713 172.289 201.739 172.212 201.796 172.18C201.85 172.152 201.959 172.136 202.122 172.136C202.176 172.136 202.272 172.174 202.406 172.251C202.54 172.327 202.719 172.442 202.937 172.593C203.86 173.171 204.729 173.461 205.543 173.461C206.358 173.461 207.118 173.219 207.824 172.73L208.396 172.363C208.504 171.724 208.559 171.19 208.559 170.762C208.559 170.641 208.437 170.548 208.191 170.487C207.945 170.427 207.553 170.382 207.009 170.35C206.466 170.321 206.195 170.184 206.195 169.938C206.195 169.845 206.249 169.724 206.358 169.571C206.466 169.417 206.521 169.28 206.521 169.158C206.521 169.066 206.479 168.954 206.399 168.817C206.316 168.679 206.278 168.552 206.278 168.427C206.278 168.274 206.319 168.146 206.399 168.037C206.479 167.932 206.521 167.846 206.521 167.785C206.521 167.632 206.22 167.373 205.623 167.009C205.243 166.766 204.888 166.507 204.563 166.232C204.237 165.958 203.828 165.622 203.339 165.226C203.122 164.983 202.796 164.725 202.362 164.45C201.601 163.961 201.084 163.718 200.812 163.718C200.704 163.718 200.595 163.779 200.486 163.9C200.052 164.204 198.991 164.693 197.308 165.363C196.765 165.546 196.423 165.715 196.289 165.865C196.152 166.018 196.084 166.383 196.084 166.964C196.084 167.057 195.989 167.184 195.8 167.354C195.608 167.523 195.516 167.635 195.516 167.695C195.516 167.878 195.57 168.124 195.679 168.427C195.896 168.944 196.005 169.404 196.005 169.797C196.005 170.468 195.704 171.002 195.107 171.398C195.053 171.43 195.011 171.452 194.986 171.465C194.957 171.481 194.944 171.503 194.944 171.535L196.084 171.992C196.628 172.299 197.171 172.535 197.714 172.701C198.257 172.87 198.691 173.212 199.017 173.73L199.752 174.506C200.838 175.484 201.573 176.624 201.953 177.937C202.061 178.333 202.141 178.531 202.195 178.531L202.202 178.537Z" fill="white"/>
<path d="M226.486 192.848C226.269 192.848 225.997 192.733 225.672 192.507C225.346 192.28 225.061 191.996 224.815 191.66C224.57 191.325 224.231 190.791 223.796 190.06L223.308 189.283C222.819 188.552 222.464 188.063 222.247 187.82C222.03 187.578 221.813 187.134 221.595 186.495C221.107 185.092 220.618 184.009 220.129 183.249C219.532 182.182 219.069 181.071 218.743 179.911C218.634 179.608 218.58 179.362 218.58 179.179C218.58 178.937 218.772 178.684 219.152 178.426C219.532 178.167 219.87 177.831 220.171 177.419C220.468 177.007 220.672 176.605 220.781 176.209C220.781 176.055 220.835 175.889 220.944 175.707L221.27 175.25L220.698 174.426C220.698 174.244 220.56 174.091 220.292 173.969C219.803 173.513 219.286 173.209 218.743 173.056C218.2 172.902 217.928 172.752 217.928 172.599C217.928 172.506 218.12 172.401 218.5 172.279C219.532 171.851 220.049 171.471 220.049 171.136C220.049 171.014 219.928 170.906 219.682 170.816C219.439 170.724 219.315 170.618 219.315 170.497C219.315 170.315 219.695 170.085 220.455 169.81C221.215 169.535 221.595 169.034 221.595 168.302C221.595 167.967 221.541 167.51 221.433 166.932C221.215 166.172 221.078 164.891 221.024 163.089L220.944 162.402C220.944 162.035 220.931 161.824 220.902 161.763C220.874 161.703 220.781 161.626 220.618 161.533C220.129 161.319 219.599 161.166 219.027 161.077C218.455 160.984 218.171 160.847 218.171 160.664C218.171 160.511 218.404 160.351 218.864 160.185C219.324 160.019 219.557 159.859 219.557 159.706C219.557 159.645 219.516 159.569 219.436 159.476C219.353 159.383 219.315 159.294 219.315 159.201C219.315 159.141 219.407 159.048 219.599 158.927C219.787 158.805 219.883 158.729 219.883 158.697C219.883 158.575 219.599 158.432 219.027 158.262C218.455 158.096 218.117 157.943 218.008 157.805C217.9 157.668 217.845 157.492 217.845 157.278L217.928 156.777C217.928 156.349 218.008 155.953 218.171 155.588C219.04 152.966 219.883 151.078 220.698 149.918L221.35 148.867C221.73 148.168 222.11 147.816 222.49 147.816C222.761 147.816 222.899 147.893 222.899 148.046L222.736 148.321C222.084 149.113 221.758 150.136 221.758 151.385C221.758 152.177 221.813 152.726 221.921 153.03C222.03 153.518 222.397 153.816 223.02 153.921C223.643 154.03 224.065 154.151 224.282 154.288C224.499 154.426 224.662 154.646 224.771 154.953C224.934 155.381 225.231 155.684 225.668 155.866C225.94 155.959 226.103 156.048 226.157 156.141C226.157 156.234 226.103 156.384 225.994 156.598C225.614 157.026 225.422 157.483 225.422 157.968V158.47C225.422 158.773 225.611 159.086 225.994 159.406C226.374 159.725 226.617 160.147 226.729 160.664C226.838 161.367 227.243 161.853 227.952 162.128C228.495 162.281 228.876 162.645 229.093 163.226C229.256 163.562 229.499 163.929 229.828 164.325C230.153 164.721 230.534 165.194 230.968 165.744C232.163 167.389 233.032 168.472 233.575 168.989C234.009 169.385 234.319 169.781 234.511 170.178C234.699 170.574 235.121 171.168 235.772 171.96C236.044 172.267 236.232 172.417 236.344 172.417C236.561 172.417 236.67 172.279 236.67 172.005C236.67 171.395 236.411 170.641 235.897 169.74C235.38 168.842 235.124 168.2 235.124 167.82C235.124 167.44 234.987 166.989 234.718 166.472C234.501 166.168 234.364 165.808 234.309 165.399C234.255 164.987 234.134 164.645 233.942 164.37C233.75 164.095 233.658 163.897 233.658 163.776C233.658 163.623 233.712 163.546 233.821 163.546C234.092 163.546 234.485 163.699 235.003 164.003C235.517 164.309 235.939 164.459 236.264 164.459C236.482 164.459 236.616 164.338 236.673 164.092L236.59 163.591C236.59 163.437 236.795 163.332 237.2 163.271C237.606 163.21 237.919 163.041 238.136 162.77C238.136 162.741 238.178 162.699 238.258 162.655C238.341 162.61 238.392 162.572 238.421 162.54C238.446 162.511 238.462 162.479 238.462 162.447C238.462 162.415 238.433 162.386 238.379 162.354C238.325 162.326 238.27 162.284 238.216 162.239C238.162 162.195 238.095 162.14 238.012 162.08C237.929 162.019 237.836 161.942 237.727 161.85C237.619 161.757 237.552 161.683 237.523 161.62C237.494 161.559 237.481 161.498 237.481 161.438L237.887 159.655C237.941 159.412 237.996 159.192 238.05 158.991C238.104 158.793 238.133 158.601 238.133 158.419L238.296 157.55C238.405 157.122 238.459 156.665 238.459 156.179C238.459 155.662 238.405 155.25 238.296 154.943C238.242 154.851 238.213 154.7 238.213 154.486C238.104 153.755 237.996 153.221 237.887 152.886C237.616 151.484 237.481 150.599 237.481 150.235C237.481 149.899 237.59 149.733 237.807 149.733C238.025 149.733 238.322 149.915 238.705 150.283C239.791 151.442 240.551 152.416 240.986 153.209C241.203 153.665 241.475 154.336 241.8 155.221C241.909 155.649 242.056 156.106 242.248 156.592C242.436 157.08 242.586 157.492 242.695 157.828L243.43 159.658C243.755 160.604 244.052 161.687 244.327 162.904C244.707 164.702 244.899 166.028 244.899 166.881C244.899 167.612 244.762 167.98 244.49 167.98C244.219 167.98 243.931 167.865 243.634 167.638C243.334 167.408 242.982 167.181 242.573 166.951C242.165 166.721 241.867 166.577 241.676 166.517C241.484 166.456 241.363 166.424 241.308 166.424C241.145 166.424 241.062 166.539 241.062 166.766C241.062 166.993 240.954 167.172 240.737 167.293V167.338C240.302 167.552 240.085 167.766 240.085 167.977C240.085 168.223 240.356 168.587 240.9 169.075C241.28 169.44 241.497 169.702 241.551 169.852C241.551 170.005 241.414 170.126 241.142 170.216C240.599 170.491 240.328 171.452 240.328 173.097C240.328 174.742 240.625 176.039 241.225 176.985L241.797 177.809C241.851 177.962 241.931 178.1 242.04 178.221C242.149 178.343 242.244 178.489 242.324 178.656C242.407 178.825 242.554 179.074 242.771 179.409C242.989 179.745 243.097 179.988 243.097 180.141C243.043 180.294 242.88 180.46 242.609 180.643C241.903 181.192 241.385 181.892 241.059 182.744C240.896 183.355 240.65 183.658 240.325 183.658C239.836 183.658 239.155 182.943 238.286 181.508C238.232 181.448 238.149 181.333 238.04 181.166C237.932 181 237.769 180.809 237.552 180.595C237.226 180.259 237.063 179.956 237.063 179.681C237.063 179.528 237.034 179.406 236.983 179.317L234.456 176.391C233.262 174.896 232.431 173.937 231.971 173.509C231.508 173.081 231.249 172.81 231.198 172.685C231.144 172.564 231.089 172.487 231.035 172.455C230.872 172.212 230.518 171.845 229.975 171.356C229.975 170.289 229.962 169.686 229.933 169.551C229.904 169.414 229.674 169.133 229.24 168.705C229.185 168.705 229.144 168.683 229.118 168.635C229.09 168.59 229.035 168.536 228.955 168.475C228.872 168.414 228.454 168.063 227.694 167.424C227.422 167.271 227.151 167.012 226.879 166.648C225.956 165.613 225.359 165.092 225.087 165.092C225.033 165.092 225.007 165.229 225.007 165.504C224.899 166.296 224.844 166.983 224.844 167.561C224.899 167.957 224.924 168.523 224.924 169.254C224.924 169.864 224.95 170.459 225.007 171.037C225.116 173.139 225.224 174.244 225.333 174.353C225.442 174.461 225.521 174.551 225.576 174.627C225.63 174.704 225.726 174.803 225.86 174.924C225.994 175.046 226.065 175.154 226.065 175.244C226.065 175.458 225.914 175.701 225.617 175.975C225.317 176.25 225.17 176.448 225.17 176.57C225.17 176.723 225.413 176.822 225.905 176.867C226.397 176.911 226.691 177.026 226.802 177.208V177.253C226.857 177.285 226.898 177.323 226.924 177.368C226.949 177.413 227.128 177.451 227.454 177.483C227.78 177.515 228.131 177.544 228.515 177.576C229.438 177.668 229.901 177.806 229.901 177.988L229.738 178.307C229.467 178.825 229.329 179.588 229.329 180.595C229.112 180.748 228.866 180.869 228.595 180.959C227.726 181.265 226.991 181.706 226.394 182.284L225.988 182.697C225.228 183.275 224.819 184.741 224.764 187.086C224.764 187.846 224.847 188.466 225.01 188.938C225.173 189.411 225.499 190.133 225.988 191.111L226.802 192.529L226.719 192.666C226.665 192.727 226.624 192.772 226.598 192.804C226.569 192.833 226.528 192.848 226.477 192.848H226.486Z" fill="white"/>
<path d="M243.356 190.335C243.247 190.335 243.168 190.319 243.11 190.29V189.971L243.356 189.788C244.008 189.424 244.851 188.539 245.883 187.137C246.426 186.466 246.806 186.054 247.023 185.901C247.621 185.383 248.109 184.712 248.49 183.888L248.978 183.112C249.304 182.745 249.48 182.502 249.509 182.381C249.534 182.259 249.592 182.128 249.672 181.991C249.755 181.853 250.039 181.617 250.528 181.282C251.125 180.764 251.476 180.384 251.588 180.138L251.914 179.819C252.294 179.483 252.537 179.042 252.649 178.493C252.649 177.883 252.569 177.41 252.406 177.075L252.08 176.436C251.809 175.857 251.266 175.484 250.451 175.314C249.636 175.148 249.227 174.985 249.227 174.835C249.227 174.775 249.282 174.704 249.39 174.628C249.499 174.551 249.566 174.484 249.595 174.423C249.62 174.362 249.662 174.286 249.716 174.193L249.799 173.369C249.636 173.276 249.445 173.171 249.227 173.05C249.01 172.928 248.902 172.746 248.902 172.5C248.956 172.407 249.336 172.225 250.042 171.951C250.422 171.769 250.694 171.577 250.857 171.379C251.02 171.181 251.103 170.916 251.103 170.577C251.103 169.906 251.02 169.13 250.857 168.245C250.694 167.606 250.614 166.827 250.614 165.913C250.56 164.846 250.451 163.945 250.288 163.214C250.179 162.786 250.125 162.466 250.125 162.252C250.125 161.917 250.314 161.642 250.697 161.428L251.023 161.198C250.968 161.077 250.943 161.007 250.943 160.994C250.943 160.981 250.617 160.773 249.965 160.377C249.64 160.348 249.301 160.301 248.946 160.24C248.592 160.179 248.157 160.147 247.643 160.147C247.129 160.147 246.87 160.071 246.87 159.917L247.033 159.55C247.033 159.457 246.979 159.374 246.87 159.297C246.761 159.221 246.707 159.093 246.707 158.908C246.707 158.815 246.749 158.678 246.828 158.496C246.908 158.314 247.071 158.144 247.317 157.994C247.56 157.841 247.713 157.735 247.764 157.675C247.764 157.614 247.643 157.537 247.397 157.445C247.154 157.352 246.758 156.867 246.215 155.982L245.401 154.701C245.129 154.397 244.995 153.755 244.995 152.781C244.995 151.532 245.024 150.784 245.075 150.542C245.075 150.024 245.087 149.717 245.116 149.628C245.145 149.535 245.225 149.484 245.362 149.468C245.5 149.452 245.647 149.446 245.809 149.446C245.918 149.506 246.081 149.903 246.298 150.634C246.407 151.091 246.557 151.525 246.745 151.937C246.937 152.35 247.142 152.618 247.356 152.739L247.439 152.832V152.877C247.439 152.909 247.397 152.947 247.317 152.992C247.234 153.036 247.196 153.091 247.196 153.151C247.196 153.333 247.467 153.653 248.01 154.113C248.553 154.57 249.272 155.058 250.17 155.576C251.067 156.093 251.895 156.477 252.655 156.72L254.121 157.132C255.262 157.528 256.431 157.847 257.626 158.093L258.849 158.413C258.958 158.473 259.258 158.534 259.747 158.595C260.236 158.655 260.481 158.764 260.481 158.914C260.481 159.007 260.344 159.144 260.073 159.326L259.747 159.646C259.421 159.981 259.204 160.217 259.095 160.355C258.987 160.492 258.891 160.569 258.811 160.585C258.728 160.601 258.619 160.607 258.485 160.607C258.351 160.607 258.281 160.623 258.281 160.652C258.281 160.681 258.252 160.789 258.197 160.971C258.143 161.339 257.872 161.521 257.383 161.521L255.591 161.428C255.536 161.46 255.511 161.626 255.511 161.93C255.511 162.754 255.565 163.651 255.674 164.629C255.837 166.031 256.025 167.006 256.246 167.555C256.246 167.708 256.217 167.846 256.166 167.967C256.111 168.089 256.07 168.287 256.044 168.561C256.016 168.836 256.003 169.111 256.003 169.386C256.003 170.484 255.974 171.184 255.92 171.487C255.92 172.28 255.945 172.813 256.003 173.088C256.057 173.363 256.274 173.896 256.655 174.688L256.246 175.65C256.246 175.742 256.271 175.826 256.329 175.902C256.383 175.979 256.626 176.046 257.063 176.11C257.498 176.171 257.769 176.241 257.878 176.314C257.987 176.391 258.041 176.506 258.041 176.656L257.961 177.25C259.59 177.036 260.814 176.777 261.628 176.474C262.226 176.292 262.631 176.199 262.852 176.199C263.072 176.199 263.178 176.26 263.178 176.381C263.178 176.595 262.797 177.052 262.037 177.752C260.354 179.672 259.376 180.799 259.105 181.135C258.833 181.47 258.29 181.959 257.476 182.598C256.824 183.055 256.281 183.467 255.846 183.831C254.054 185.537 251.173 187.23 247.209 188.907L246.068 189.456C244.873 190.034 243.979 190.325 243.378 190.325L243.356 190.335Z" fill="white"/>
<path d="M269.675 194.13C269.566 194.13 269.471 194.098 269.391 194.037C269.308 193.976 269.269 193.9 269.269 193.807C269.269 193.714 269.311 193.615 269.391 193.51C269.471 193.404 269.566 193.098 269.675 192.596C269.784 192.095 269.918 191.66 270.081 191.293C270.352 190.715 270.595 189.83 270.815 188.642C270.87 188.549 270.911 188.412 270.937 188.229C270.962 188.047 271.004 187.894 271.058 187.773L271.384 186.766C271.547 185.76 271.63 184.463 271.63 182.879C271.63 181.933 271.384 180.866 270.895 179.678C270.569 179.007 270.406 178.474 270.406 178.078L270.327 177.439L269.838 177.164C269.458 176.95 269.116 176.713 268.819 176.455C268.519 176.196 268.247 175.992 268.004 175.838C267.758 175.685 267.42 175.548 266.985 175.426C266.279 175.244 265.87 174.877 265.762 174.327V174.283C265.707 174.008 265.57 173.733 265.353 173.458C265.136 173.184 264.957 172.963 264.823 172.794C264.685 172.628 264.388 172.458 263.925 172.292C263.462 172.126 263.177 171.967 263.069 171.813V171.769C263.069 171.647 263.232 171.465 263.558 171.219C264.97 170.059 265.676 168.612 265.676 166.875L265.921 165.456C265.921 165.335 265.88 165.226 265.8 165.137C265.72 165.044 265.557 164.923 265.311 164.769C265.069 164.616 264.944 164.466 264.944 164.313V164.175C264.944 164.083 265.132 163.901 265.516 163.626C265.787 163.473 265.976 163.306 266.088 163.124C266.196 162.942 266.276 162.712 266.33 162.438C266.385 162.345 266.426 162.233 266.452 162.096C266.477 161.958 266.519 161.837 266.573 161.728C266.627 161.623 266.653 161.508 266.653 161.387C266.653 160.837 266.11 160.396 265.024 160.061C264.644 159.939 264.452 159.831 264.452 159.741V159.697C264.452 159.604 264.586 159.483 264.858 159.329L264.941 159.237C265.267 159.055 265.522 158.834 265.714 158.572C265.902 158.313 266.161 158.061 266.487 157.818C267.682 156.905 268.333 155.729 268.442 154.298C268.442 154.116 268.467 153.947 268.525 153.797V153.295C268.634 153.234 268.742 153.202 268.851 153.202L269.014 153.247C269.448 153.368 269.72 153.554 269.828 153.797C269.937 154.043 270.058 154.215 270.196 154.324C270.33 154.432 270.48 154.56 270.643 154.713C270.806 154.867 271.065 155.119 271.416 155.467C271.767 155.819 272.109 156.16 272.435 156.496C272.924 157.045 273.17 157.409 273.17 157.595C273.17 157.898 272.869 158.183 272.272 158.441C271.675 158.7 271.253 158.92 271.01 159.106C270.764 159.288 270.643 159.671 270.643 160.249C270.643 161.652 270.751 162.521 270.969 162.856C271.023 163.102 271.211 163.389 271.541 163.725C272.301 164.67 272.681 165.281 272.681 165.555C272.681 165.801 272.381 166.133 271.783 166.562L271.7 166.654C270.614 167.446 270.071 168.025 270.071 168.392C270.071 168.638 270.247 168.849 270.601 169.031C270.953 169.213 271.132 169.366 271.132 169.488C271.132 169.67 270.914 170.082 270.48 170.721C270.154 171.117 269.991 171.436 269.991 171.682C269.991 172.05 270.889 172.765 272.681 173.832C273.55 174.35 274.243 174.755 274.761 175.043C275.275 175.334 275.751 175.477 276.185 175.477C276.348 175.477 276.553 175.455 276.795 175.407C277.041 175.362 277.297 175.11 277.568 174.653C278.003 173.982 278.22 173.222 278.22 172.366C278.22 172.123 278.191 171.915 278.137 171.749C278.083 171.583 278.057 171.436 278.057 171.315C278.057 171.04 278.191 170.765 278.463 170.491C278.734 170.216 279.361 169.836 280.338 169.347C280.555 169.226 280.677 169.104 280.705 168.98C280.731 168.858 280.772 168.676 280.827 168.43C280.827 167.424 280.852 166.616 280.907 166.006L280.99 164.086C280.99 163.568 280.907 163.035 280.744 162.485C280.635 162.271 280.581 162.013 280.581 161.709C280.581 161.617 280.731 161.444 281.028 161.182C281.325 160.923 281.475 160.671 281.475 160.428C281.475 159.789 280.986 159.467 280.009 159.467C279.575 159.467 279.357 159.39 279.357 159.237C279.357 159.144 279.491 158.994 279.763 158.78C280.469 158.291 281.338 157.301 282.37 155.809C282.641 155.381 282.779 154.863 282.779 154.253C282.779 153.886 282.724 153.477 282.616 153.017C282.561 152.682 282.533 152.302 282.533 151.873C282.587 151.752 282.779 151.691 283.104 151.691C283.702 151.691 284.002 151.982 284.002 152.56C284.056 152.803 284.165 153.062 284.328 153.337C284.491 153.611 284.682 154.007 284.9 154.525C285.226 155.653 285.634 156.598 286.123 157.362C286.721 158.368 287.046 159.115 287.101 159.601C287.101 160.15 286.909 160.652 286.529 161.109C285.986 161.84 285.714 162.374 285.714 162.709L285.388 164.447C285.171 165.239 284.98 165.817 284.817 166.185C284.708 166.306 284.654 166.795 284.654 167.648C284.654 168.957 284.845 170.04 285.226 170.893C285.334 171.047 285.388 171.184 285.388 171.305C285.388 171.612 284.925 172.021 284.002 172.538C283.622 172.752 283.43 172.89 283.43 172.95C283.43 173.164 283.647 173.391 284.082 173.637C284.299 173.759 284.462 173.858 284.571 173.934C284.679 174.011 284.734 174.094 284.734 174.187C284.734 174.279 284.705 174.385 284.651 174.506C284.596 174.628 284.571 174.765 284.571 174.918C284.571 175.011 285.031 175.148 285.957 175.33C287.097 175.544 287.72 175.726 287.832 175.88V175.924C287.832 176.107 287.478 176.337 286.772 176.611C285.305 177.161 284.191 177.771 283.43 178.442C282.941 178.838 282.315 179.218 281.555 179.585C281.066 179.799 280.59 180.042 280.13 180.317C279.667 180.592 279.341 180.834 279.153 181.048C278.961 181.262 278.623 181.78 278.134 182.604L275.527 187.268C274.984 188.578 274.086 189.843 272.837 191.063L272.266 191.75C271.017 193.334 270.148 194.126 269.659 194.126L269.675 194.13Z" fill="white"/>
<path d="M319.058 192.711C318.895 192.711 318.815 192.65 318.815 192.529C318.815 192.347 318.908 192.063 319.099 191.683C319.288 191.302 319.547 190.791 319.873 190.149L320.85 187.773C320.904 187.498 320.971 187.271 321.054 187.086C321.138 186.904 321.217 186.619 321.3 186.239C321.38 185.859 321.476 185.485 321.585 185.118L321.748 184.342C322.182 182.725 322.399 181.553 322.399 180.821C322.399 180.304 322.316 179.831 322.153 179.403L321.748 178.122C321.639 177.726 321.502 177.467 321.339 177.346C321.176 177.224 321.096 177.103 321.096 176.982C321.096 176.889 321.176 176.768 321.339 176.614C321.665 176.311 321.962 175.944 322.236 175.515C322.508 175.087 322.642 174.784 322.642 174.602C322.642 174.509 322.262 174.174 321.502 173.596C321.284 173.382 321.176 173.168 321.176 172.957C321.176 172.864 321.201 172.775 321.259 172.682C321.313 172.589 321.339 172.516 321.339 172.452C321.339 172.177 320.876 172.04 319.952 172.04C319.464 172.04 319.218 171.919 319.218 171.673C319.218 171.276 319.841 170.574 321.093 169.567C322.07 168.836 323.131 167.753 324.271 166.322L324.843 165.635V164.859C324.843 163.885 324.543 163.182 323.945 162.757C321.122 160.441 319.435 159.281 318.892 159.281C318.838 159.281 318.77 159.297 318.687 159.326C318.608 159.358 318.32 159.371 317.831 159.371C317.56 159.371 317.234 159.479 316.854 159.69C315.931 160.268 315.467 160.834 315.467 161.383C315.467 161.658 315.167 162.405 314.57 163.623C314.135 164.415 313.781 165.405 313.509 166.593C313.238 167.782 313.1 169.002 313.1 170.251L313.346 170.388C313.998 170.692 314.378 170.938 314.487 171.12C314.487 171.334 314.378 171.561 314.161 171.807C313.726 172.203 313.509 172.51 313.509 172.72C313.509 172.931 313.822 173.1 314.445 173.222C315.068 173.343 315.381 173.541 315.381 173.816C315.381 174.059 315.11 174.365 314.567 174.73C314.404 174.822 314.186 175.02 313.915 175.324L313.1 176.1C312.557 176.528 312.286 177.228 312.286 178.202C312.286 178.537 312.311 178.927 312.369 179.368C312.423 179.809 312.449 180.259 312.449 180.716C312.449 182.118 312.231 182.821 311.797 182.821C311.58 182.821 311.334 182.546 311.062 181.997L309.187 176.097C309.024 175.394 308.59 174.8 307.884 174.314C307.504 174.072 307.312 173.765 307.312 173.401C307.312 173.097 307.583 172.593 308.127 171.893L307.801 170.523C307.746 170.28 307.651 170.072 307.516 169.906C307.379 169.74 307.12 168.97 306.743 167.596C306.635 167.443 306.459 167.229 306.213 166.958C305.97 166.683 305.846 166.44 305.846 166.226C305.846 165.983 305.954 165.747 306.172 165.517C306.389 165.287 306.497 165.098 306.497 164.945C306.497 164.792 306.427 164.664 306.293 164.555C306.156 164.45 305.938 164.29 305.641 164.076C305.341 163.862 305.057 163.635 304.785 163.389C304.514 163.147 304.309 162.971 304.175 162.862C304.038 162.757 303.916 162.658 303.808 162.565C303.645 162.658 303.453 162.779 303.236 162.933C303.019 163.086 302.773 163.262 302.501 163.46C302.23 163.658 301.958 163.856 301.687 164.054C301.415 164.252 301.198 164.412 301.035 164.533C300.166 165.172 299.732 165.677 299.732 166.041L300.137 168.098C300.246 168.465 300.3 169.242 300.3 170.43V171.986C300.3 172.232 300.383 172.398 300.546 172.487C300.709 172.577 300.952 172.64 301.281 172.669L301.527 172.714C302.287 172.835 302.667 173.033 302.667 173.308C302.667 173.461 302.559 173.675 302.341 173.947L302.016 174.404C302.016 174.436 302.45 174.449 303.319 174.449C304.459 174.449 305.031 174.557 305.031 174.768C305.031 174.889 304.868 175.059 304.542 175.269C304.054 175.637 303.565 176.148 303.076 176.803C302.587 177.458 302.207 178.052 301.936 178.585C301.664 179.119 301.53 179.873 301.53 180.85C301.53 181.064 301.556 181.553 301.61 182.313C301.664 183.077 301.869 184.144 302.22 185.514C302.571 186.884 303.022 187.983 303.565 188.808C303.673 189.022 303.728 189.188 303.728 189.309C303.728 189.43 303.673 189.491 303.565 189.491C303.293 189.491 302.939 189.261 302.504 188.804C302.233 188.348 301.907 187.904 301.527 187.479C301.31 187.265 301.105 187.044 300.917 186.814C300.725 186.587 300.578 186.396 300.469 186.242L299.572 184.917C299.3 184.367 298.974 183.85 298.594 183.361C298.214 182.872 297.86 182.332 297.534 181.738C297.208 181.144 296.869 180.611 296.515 180.138C296.16 179.665 295.863 179.125 295.617 178.515C295.371 177.905 295.208 177.515 295.128 177.349C295.045 177.183 295.007 177.007 295.007 176.822C294.898 176.458 294.844 176.046 294.844 175.589V174.401C294.844 174.247 295.033 173.96 295.416 173.532C295.687 173.228 295.825 172.845 295.825 172.388C295.825 171.931 295.716 171.497 295.499 171.085C295.282 170.673 294.981 170.385 294.601 170.216C294.221 170.05 294.029 169.842 294.029 169.599C294.029 169.232 294.41 168.775 295.17 168.229C295.387 168.108 295.496 167.999 295.496 167.91C295.496 167.788 295.346 167.705 295.048 167.657C294.748 167.612 294.573 167.564 294.518 167.52C294.464 167.475 294.327 167.344 294.109 167.13L293.621 167.175C293.24 167.175 292.982 167.152 292.848 167.108C292.71 167.063 292.643 166.887 292.643 166.581C292.643 166.274 292.697 165.756 292.806 165.025L292.969 163.654C292.969 162.434 293.052 161.399 293.215 160.546C293.378 159.693 294.029 158.186 295.17 156.02L295.333 155.745C295.333 155.592 295.32 155.502 295.291 155.47C295.263 155.442 295.25 155.41 295.25 155.378V155.218C295.25 155.141 295.496 154.86 295.984 154.371C296.039 154.25 296.336 153.931 296.882 153.41L299 151.215L299.572 150.576C299.572 150.548 299.597 150.532 299.652 150.532C299.869 150.289 300.032 150.129 300.14 150.053C300.249 149.976 300.386 149.938 300.549 149.938C300.767 149.938 300.875 149.998 300.875 150.12C300.875 150.273 300.725 150.509 300.428 150.829C300.128 151.148 299.764 151.765 299.329 152.682C299.003 153.413 298.757 153.918 298.594 154.189C298.268 154.799 297.984 155.493 297.738 156.269C297.492 157.045 297.371 157.604 297.371 157.94C297.588 159.374 297.738 160.144 297.818 160.249C297.901 160.358 297.939 160.546 297.939 160.821C297.939 161.278 298.102 161.508 298.428 161.508C298.754 161.508 299.188 161.348 299.732 161.029C300.275 160.709 300.655 160.549 300.872 160.549L301.524 160.642C301.578 160.642 301.712 160.46 301.929 160.093C302.147 159.725 302.338 159.361 302.501 158.994C302.773 158.444 303.003 158.131 303.194 158.058C303.383 157.981 303.562 157.943 303.725 157.943C303.942 157.943 304.201 157.975 304.498 158.035C304.795 158.096 304.999 158.166 305.108 158.24C305.216 158.317 305.312 158.444 305.392 158.63C305.475 158.812 305.651 159.042 305.922 159.316C306.628 160.109 307.36 160.751 308.123 161.236C308.938 161.907 309.398 162.243 309.51 162.243C309.622 162.243 309.919 161.815 310.407 160.962C310.896 160.109 311.682 159.499 312.771 159.131C312.771 157.821 312.854 157.08 313.017 156.914C313.18 156.748 313.56 156.662 314.158 156.662C314.429 156.662 314.797 156.592 315.257 156.457C315.717 156.32 316.084 156.16 316.355 155.978C316.898 155.735 317.253 155.384 317.416 154.927C317.47 154.624 317.604 154.135 317.825 153.464L318.397 151.362C318.505 150.327 318.614 149.64 318.723 149.305L318.968 147.797C318.968 147.462 318.914 147.142 318.806 146.836C318.697 146.532 318.643 146.274 318.643 146.06C318.643 145.663 318.806 145.465 319.131 145.465C319.457 145.465 319.783 145.724 320.109 146.242C320.978 147.462 321.792 148.832 322.553 150.356C322.716 150.723 323.041 151.27 323.53 152.001L323.693 152.369C323.965 152.733 324.182 153.132 324.345 153.557C324.616 154.135 324.955 154.784 325.364 155.499C325.769 156.215 326.083 156.703 326.3 156.962C326.517 157.221 326.651 157.534 326.709 157.898C326.872 158.569 327.549 159.102 328.747 159.499C329.29 159.652 329.587 159.802 329.644 159.955C329.644 160.109 329.427 160.323 328.993 160.594C328.232 161.083 327.852 161.54 327.852 161.965C327.852 162.268 328.069 162.559 328.504 162.834C328.775 162.955 328.938 163.064 328.993 163.153C328.993 163.274 328.951 163.389 328.871 163.495C328.791 163.603 328.75 163.686 328.75 163.747C328.75 163.9 328.954 164.038 329.36 164.159C329.769 164.281 329.97 164.402 329.97 164.527C329.916 164.709 329.235 165.165 327.932 165.897V166.446C327.823 166.814 327.689 167.117 327.526 167.36C327.418 167.481 327.322 167.619 327.242 167.772C327.162 167.925 327.121 168.047 327.121 168.139C327.066 168.382 326.888 168.651 326.59 168.941C326.29 169.232 326.143 169.468 326.143 169.65C326.143 169.804 326.306 169.948 326.632 170.085C326.958 170.222 328.069 170.305 329.973 170.337C331.331 170.337 332.05 170.408 332.133 170.542C332.213 170.679 332.254 170.871 332.254 171.114C332.254 171.692 331.791 172.439 330.868 173.353C330.379 173.842 330.133 174.391 330.133 174.998C330.133 175.305 330.2 175.547 330.338 175.729C330.472 175.912 330.542 176.11 330.542 176.324C330.542 176.873 330.27 177.375 329.727 177.831C328.533 179.052 327.798 180.272 327.526 181.489L325.977 185.239C325.706 185.757 325.188 186.488 324.428 187.434C323.342 189.14 322.093 190.558 320.681 191.686C319.92 192.357 319.377 192.692 319.052 192.692L319.058 192.711Z" fill="white"/>
</svg>
